G04 #@! TF.GenerationSoftware,KiCad,Pcbnew,(5.1.5)-3*
G04 #@! TF.CreationDate,2020-11-15T12:52:39-05:00*
G04 #@! TF.ProjectId,MgBoard,4d67426f-6172-4642-9e6b-696361645f70,rev?*
G04 #@! TF.SameCoordinates,PX39a64d0PYa4983b0*
G04 #@! TF.FileFunction,Paste,Bot*
G04 #@! TF.FilePolarity,Positive*
%FSLAX46Y46*%
G04 Gerber Fmt 4.6, Leading zero omitted, Abs format (unit mm)*
G04 Created by KiCad (PCBNEW (5.1.5)-3) date 2020-11-15 12:52:39*
%MOMM*%
%LPD*%
G04 APERTURE LIST*
%ADD10R,1.750000X0.450000*%
%ADD11R,1.500000X1.000000*%
%ADD12C,0.100000*%
%ADD13R,0.800000X0.700000*%
%ADD14R,1.900000X0.800000*%
%ADD15R,0.450000X1.450000*%
%ADD16R,2.550000X2.500000*%
%ADD17R,1.100000X1.100000*%
%ADD18R,1.200000X0.900000*%
G04 APERTURE END LIST*
D10*
X32391030Y88592790D03*
X32391030Y89242790D03*
X32391030Y89892790D03*
X32391030Y90542790D03*
X32391030Y91192790D03*
X32391030Y91842790D03*
X32391030Y92492790D03*
X32391030Y93142790D03*
X32391030Y93792790D03*
X32391030Y94442790D03*
X32391030Y95092790D03*
X32391030Y95742790D03*
X32391030Y96392790D03*
X32391030Y97042790D03*
X39591030Y97042790D03*
X39591030Y96392790D03*
X39591030Y95742790D03*
X39591030Y95092790D03*
X39591030Y94442790D03*
X39591030Y93792790D03*
X39591030Y93142790D03*
X39591030Y92492790D03*
X39591030Y91842790D03*
X39591030Y91192790D03*
X39591030Y90542790D03*
X39591030Y89892790D03*
X39591030Y89242790D03*
X39591030Y88592790D03*
D11*
X42794660Y21017470D03*
X42794660Y24217470D03*
X47694660Y21017470D03*
X47694660Y24217470D03*
X28644580Y24217470D03*
X28644580Y21017470D03*
X23744580Y24217470D03*
X23744580Y21017470D03*
X42794660Y40067550D03*
X42794660Y43267550D03*
X47694660Y40067550D03*
X47694660Y43267550D03*
X28713320Y43267550D03*
X28713320Y40067550D03*
X23813320Y43267550D03*
X23813320Y40067550D03*
X42794660Y59117630D03*
X42794660Y62317630D03*
X47694660Y59117630D03*
X47694660Y62317630D03*
X28644580Y62317630D03*
X28644580Y59117630D03*
X23744580Y62317630D03*
X23744580Y59117630D03*
X42794660Y78167710D03*
X42794660Y81367710D03*
X47694660Y78167710D03*
X47694660Y81367710D03*
X28644580Y81367710D03*
X28644580Y78167710D03*
X23744580Y81367710D03*
X23744580Y78167710D03*
D12*
G36*
X33333509Y23091326D02*
G01*
X33356564Y23087907D01*
X33379173Y23082243D01*
X33401117Y23074391D01*
X33422187Y23064426D01*
X33442178Y23052444D01*
X33460898Y23038560D01*
X33478168Y23022908D01*
X33493820Y23005638D01*
X33507704Y22986918D01*
X33519686Y22966927D01*
X33529651Y22945857D01*
X33537503Y22923913D01*
X33543167Y22901304D01*
X33546586Y22878249D01*
X33547730Y22854970D01*
X33547730Y22379970D01*
X33546586Y22356691D01*
X33543167Y22333636D01*
X33537503Y22311027D01*
X33529651Y22289083D01*
X33519686Y22268013D01*
X33507704Y22248022D01*
X33493820Y22229302D01*
X33478168Y22212032D01*
X33460898Y22196380D01*
X33442178Y22182496D01*
X33422187Y22170514D01*
X33401117Y22160549D01*
X33379173Y22152697D01*
X33356564Y22147033D01*
X33333509Y22143614D01*
X33310230Y22142470D01*
X32735230Y22142470D01*
X32711951Y22143614D01*
X32688896Y22147033D01*
X32666287Y22152697D01*
X32644343Y22160549D01*
X32623273Y22170514D01*
X32603282Y22182496D01*
X32584562Y22196380D01*
X32567292Y22212032D01*
X32551640Y22229302D01*
X32537756Y22248022D01*
X32525774Y22268013D01*
X32515809Y22289083D01*
X32507957Y22311027D01*
X32502293Y22333636D01*
X32498874Y22356691D01*
X32497730Y22379970D01*
X32497730Y22854970D01*
X32498874Y22878249D01*
X32502293Y22901304D01*
X32507957Y22923913D01*
X32515809Y22945857D01*
X32525774Y22966927D01*
X32537756Y22986918D01*
X32551640Y23005638D01*
X32567292Y23022908D01*
X32584562Y23038560D01*
X32603282Y23052444D01*
X32623273Y23064426D01*
X32644343Y23074391D01*
X32666287Y23082243D01*
X32688896Y23087907D01*
X32711951Y23091326D01*
X32735230Y23092470D01*
X33310230Y23092470D01*
X33333509Y23091326D01*
G37*
G36*
X31583509Y23091326D02*
G01*
X31606564Y23087907D01*
X31629173Y23082243D01*
X31651117Y23074391D01*
X31672187Y23064426D01*
X31692178Y23052444D01*
X31710898Y23038560D01*
X31728168Y23022908D01*
X31743820Y23005638D01*
X31757704Y22986918D01*
X31769686Y22966927D01*
X31779651Y22945857D01*
X31787503Y22923913D01*
X31793167Y22901304D01*
X31796586Y22878249D01*
X31797730Y22854970D01*
X31797730Y22379970D01*
X31796586Y22356691D01*
X31793167Y22333636D01*
X31787503Y22311027D01*
X31779651Y22289083D01*
X31769686Y22268013D01*
X31757704Y22248022D01*
X31743820Y22229302D01*
X31728168Y22212032D01*
X31710898Y22196380D01*
X31692178Y22182496D01*
X31672187Y22170514D01*
X31651117Y22160549D01*
X31629173Y22152697D01*
X31606564Y22147033D01*
X31583509Y22143614D01*
X31560230Y22142470D01*
X30985230Y22142470D01*
X30961951Y22143614D01*
X30938896Y22147033D01*
X30916287Y22152697D01*
X30894343Y22160549D01*
X30873273Y22170514D01*
X30853282Y22182496D01*
X30834562Y22196380D01*
X30817292Y22212032D01*
X30801640Y22229302D01*
X30787756Y22248022D01*
X30775774Y22268013D01*
X30765809Y22289083D01*
X30757957Y22311027D01*
X30752293Y22333636D01*
X30748874Y22356691D01*
X30747730Y22379970D01*
X30747730Y22854970D01*
X30748874Y22878249D01*
X30752293Y22901304D01*
X30757957Y22923913D01*
X30765809Y22945857D01*
X30775774Y22966927D01*
X30787756Y22986918D01*
X30801640Y23005638D01*
X30817292Y23022908D01*
X30834562Y23038560D01*
X30853282Y23052444D01*
X30873273Y23064426D01*
X30894343Y23074391D01*
X30916287Y23082243D01*
X30938896Y23087907D01*
X30961951Y23091326D01*
X30985230Y23092470D01*
X31560230Y23092470D01*
X31583509Y23091326D01*
G37*
G36*
X52383589Y23091326D02*
G01*
X52406644Y23087907D01*
X52429253Y23082243D01*
X52451197Y23074391D01*
X52472267Y23064426D01*
X52492258Y23052444D01*
X52510978Y23038560D01*
X52528248Y23022908D01*
X52543900Y23005638D01*
X52557784Y22986918D01*
X52569766Y22966927D01*
X52579731Y22945857D01*
X52587583Y22923913D01*
X52593247Y22901304D01*
X52596666Y22878249D01*
X52597810Y22854970D01*
X52597810Y22379970D01*
X52596666Y22356691D01*
X52593247Y22333636D01*
X52587583Y22311027D01*
X52579731Y22289083D01*
X52569766Y22268013D01*
X52557784Y22248022D01*
X52543900Y22229302D01*
X52528248Y22212032D01*
X52510978Y22196380D01*
X52492258Y22182496D01*
X52472267Y22170514D01*
X52451197Y22160549D01*
X52429253Y22152697D01*
X52406644Y22147033D01*
X52383589Y22143614D01*
X52360310Y22142470D01*
X51785310Y22142470D01*
X51762031Y22143614D01*
X51738976Y22147033D01*
X51716367Y22152697D01*
X51694423Y22160549D01*
X51673353Y22170514D01*
X51653362Y22182496D01*
X51634642Y22196380D01*
X51617372Y22212032D01*
X51601720Y22229302D01*
X51587836Y22248022D01*
X51575854Y22268013D01*
X51565889Y22289083D01*
X51558037Y22311027D01*
X51552373Y22333636D01*
X51548954Y22356691D01*
X51547810Y22379970D01*
X51547810Y22854970D01*
X51548954Y22878249D01*
X51552373Y22901304D01*
X51558037Y22923913D01*
X51565889Y22945857D01*
X51575854Y22966927D01*
X51587836Y22986918D01*
X51601720Y23005638D01*
X51617372Y23022908D01*
X51634642Y23038560D01*
X51653362Y23052444D01*
X51673353Y23064426D01*
X51694423Y23074391D01*
X51716367Y23082243D01*
X51738976Y23087907D01*
X51762031Y23091326D01*
X51785310Y23092470D01*
X52360310Y23092470D01*
X52383589Y23091326D01*
G37*
G36*
X50633589Y23091326D02*
G01*
X50656644Y23087907D01*
X50679253Y23082243D01*
X50701197Y23074391D01*
X50722267Y23064426D01*
X50742258Y23052444D01*
X50760978Y23038560D01*
X50778248Y23022908D01*
X50793900Y23005638D01*
X50807784Y22986918D01*
X50819766Y22966927D01*
X50829731Y22945857D01*
X50837583Y22923913D01*
X50843247Y22901304D01*
X50846666Y22878249D01*
X50847810Y22854970D01*
X50847810Y22379970D01*
X50846666Y22356691D01*
X50843247Y22333636D01*
X50837583Y22311027D01*
X50829731Y22289083D01*
X50819766Y22268013D01*
X50807784Y22248022D01*
X50793900Y22229302D01*
X50778248Y22212032D01*
X50760978Y22196380D01*
X50742258Y22182496D01*
X50722267Y22170514D01*
X50701197Y22160549D01*
X50679253Y22152697D01*
X50656644Y22147033D01*
X50633589Y22143614D01*
X50610310Y22142470D01*
X50035310Y22142470D01*
X50012031Y22143614D01*
X49988976Y22147033D01*
X49966367Y22152697D01*
X49944423Y22160549D01*
X49923353Y22170514D01*
X49903362Y22182496D01*
X49884642Y22196380D01*
X49867372Y22212032D01*
X49851720Y22229302D01*
X49837836Y22248022D01*
X49825854Y22268013D01*
X49815889Y22289083D01*
X49808037Y22311027D01*
X49802373Y22333636D01*
X49798954Y22356691D01*
X49797810Y22379970D01*
X49797810Y22854970D01*
X49798954Y22878249D01*
X49802373Y22901304D01*
X49808037Y22923913D01*
X49815889Y22945857D01*
X49825854Y22966927D01*
X49837836Y22986918D01*
X49851720Y23005638D01*
X49867372Y23022908D01*
X49884642Y23038560D01*
X49903362Y23052444D01*
X49923353Y23064426D01*
X49944423Y23074391D01*
X49966367Y23082243D01*
X49988976Y23087907D01*
X50012031Y23091326D01*
X50035310Y23092470D01*
X50610310Y23092470D01*
X50633589Y23091326D01*
G37*
G36*
X33333509Y42141406D02*
G01*
X33356564Y42137987D01*
X33379173Y42132323D01*
X33401117Y42124471D01*
X33422187Y42114506D01*
X33442178Y42102524D01*
X33460898Y42088640D01*
X33478168Y42072988D01*
X33493820Y42055718D01*
X33507704Y42036998D01*
X33519686Y42017007D01*
X33529651Y41995937D01*
X33537503Y41973993D01*
X33543167Y41951384D01*
X33546586Y41928329D01*
X33547730Y41905050D01*
X33547730Y41430050D01*
X33546586Y41406771D01*
X33543167Y41383716D01*
X33537503Y41361107D01*
X33529651Y41339163D01*
X33519686Y41318093D01*
X33507704Y41298102D01*
X33493820Y41279382D01*
X33478168Y41262112D01*
X33460898Y41246460D01*
X33442178Y41232576D01*
X33422187Y41220594D01*
X33401117Y41210629D01*
X33379173Y41202777D01*
X33356564Y41197113D01*
X33333509Y41193694D01*
X33310230Y41192550D01*
X32735230Y41192550D01*
X32711951Y41193694D01*
X32688896Y41197113D01*
X32666287Y41202777D01*
X32644343Y41210629D01*
X32623273Y41220594D01*
X32603282Y41232576D01*
X32584562Y41246460D01*
X32567292Y41262112D01*
X32551640Y41279382D01*
X32537756Y41298102D01*
X32525774Y41318093D01*
X32515809Y41339163D01*
X32507957Y41361107D01*
X32502293Y41383716D01*
X32498874Y41406771D01*
X32497730Y41430050D01*
X32497730Y41905050D01*
X32498874Y41928329D01*
X32502293Y41951384D01*
X32507957Y41973993D01*
X32515809Y41995937D01*
X32525774Y42017007D01*
X32537756Y42036998D01*
X32551640Y42055718D01*
X32567292Y42072988D01*
X32584562Y42088640D01*
X32603282Y42102524D01*
X32623273Y42114506D01*
X32644343Y42124471D01*
X32666287Y42132323D01*
X32688896Y42137987D01*
X32711951Y42141406D01*
X32735230Y42142550D01*
X33310230Y42142550D01*
X33333509Y42141406D01*
G37*
G36*
X31583509Y42141406D02*
G01*
X31606564Y42137987D01*
X31629173Y42132323D01*
X31651117Y42124471D01*
X31672187Y42114506D01*
X31692178Y42102524D01*
X31710898Y42088640D01*
X31728168Y42072988D01*
X31743820Y42055718D01*
X31757704Y42036998D01*
X31769686Y42017007D01*
X31779651Y41995937D01*
X31787503Y41973993D01*
X31793167Y41951384D01*
X31796586Y41928329D01*
X31797730Y41905050D01*
X31797730Y41430050D01*
X31796586Y41406771D01*
X31793167Y41383716D01*
X31787503Y41361107D01*
X31779651Y41339163D01*
X31769686Y41318093D01*
X31757704Y41298102D01*
X31743820Y41279382D01*
X31728168Y41262112D01*
X31710898Y41246460D01*
X31692178Y41232576D01*
X31672187Y41220594D01*
X31651117Y41210629D01*
X31629173Y41202777D01*
X31606564Y41197113D01*
X31583509Y41193694D01*
X31560230Y41192550D01*
X30985230Y41192550D01*
X30961951Y41193694D01*
X30938896Y41197113D01*
X30916287Y41202777D01*
X30894343Y41210629D01*
X30873273Y41220594D01*
X30853282Y41232576D01*
X30834562Y41246460D01*
X30817292Y41262112D01*
X30801640Y41279382D01*
X30787756Y41298102D01*
X30775774Y41318093D01*
X30765809Y41339163D01*
X30757957Y41361107D01*
X30752293Y41383716D01*
X30748874Y41406771D01*
X30747730Y41430050D01*
X30747730Y41905050D01*
X30748874Y41928329D01*
X30752293Y41951384D01*
X30757957Y41973993D01*
X30765809Y41995937D01*
X30775774Y42017007D01*
X30787756Y42036998D01*
X30801640Y42055718D01*
X30817292Y42072988D01*
X30834562Y42088640D01*
X30853282Y42102524D01*
X30873273Y42114506D01*
X30894343Y42124471D01*
X30916287Y42132323D01*
X30938896Y42137987D01*
X30961951Y42141406D01*
X30985230Y42142550D01*
X31560230Y42142550D01*
X31583509Y42141406D01*
G37*
G36*
X52383589Y42141406D02*
G01*
X52406644Y42137987D01*
X52429253Y42132323D01*
X52451197Y42124471D01*
X52472267Y42114506D01*
X52492258Y42102524D01*
X52510978Y42088640D01*
X52528248Y42072988D01*
X52543900Y42055718D01*
X52557784Y42036998D01*
X52569766Y42017007D01*
X52579731Y41995937D01*
X52587583Y41973993D01*
X52593247Y41951384D01*
X52596666Y41928329D01*
X52597810Y41905050D01*
X52597810Y41430050D01*
X52596666Y41406771D01*
X52593247Y41383716D01*
X52587583Y41361107D01*
X52579731Y41339163D01*
X52569766Y41318093D01*
X52557784Y41298102D01*
X52543900Y41279382D01*
X52528248Y41262112D01*
X52510978Y41246460D01*
X52492258Y41232576D01*
X52472267Y41220594D01*
X52451197Y41210629D01*
X52429253Y41202777D01*
X52406644Y41197113D01*
X52383589Y41193694D01*
X52360310Y41192550D01*
X51785310Y41192550D01*
X51762031Y41193694D01*
X51738976Y41197113D01*
X51716367Y41202777D01*
X51694423Y41210629D01*
X51673353Y41220594D01*
X51653362Y41232576D01*
X51634642Y41246460D01*
X51617372Y41262112D01*
X51601720Y41279382D01*
X51587836Y41298102D01*
X51575854Y41318093D01*
X51565889Y41339163D01*
X51558037Y41361107D01*
X51552373Y41383716D01*
X51548954Y41406771D01*
X51547810Y41430050D01*
X51547810Y41905050D01*
X51548954Y41928329D01*
X51552373Y41951384D01*
X51558037Y41973993D01*
X51565889Y41995937D01*
X51575854Y42017007D01*
X51587836Y42036998D01*
X51601720Y42055718D01*
X51617372Y42072988D01*
X51634642Y42088640D01*
X51653362Y42102524D01*
X51673353Y42114506D01*
X51694423Y42124471D01*
X51716367Y42132323D01*
X51738976Y42137987D01*
X51762031Y42141406D01*
X51785310Y42142550D01*
X52360310Y42142550D01*
X52383589Y42141406D01*
G37*
G36*
X50633589Y42141406D02*
G01*
X50656644Y42137987D01*
X50679253Y42132323D01*
X50701197Y42124471D01*
X50722267Y42114506D01*
X50742258Y42102524D01*
X50760978Y42088640D01*
X50778248Y42072988D01*
X50793900Y42055718D01*
X50807784Y42036998D01*
X50819766Y42017007D01*
X50829731Y41995937D01*
X50837583Y41973993D01*
X50843247Y41951384D01*
X50846666Y41928329D01*
X50847810Y41905050D01*
X50847810Y41430050D01*
X50846666Y41406771D01*
X50843247Y41383716D01*
X50837583Y41361107D01*
X50829731Y41339163D01*
X50819766Y41318093D01*
X50807784Y41298102D01*
X50793900Y41279382D01*
X50778248Y41262112D01*
X50760978Y41246460D01*
X50742258Y41232576D01*
X50722267Y41220594D01*
X50701197Y41210629D01*
X50679253Y41202777D01*
X50656644Y41197113D01*
X50633589Y41193694D01*
X50610310Y41192550D01*
X50035310Y41192550D01*
X50012031Y41193694D01*
X49988976Y41197113D01*
X49966367Y41202777D01*
X49944423Y41210629D01*
X49923353Y41220594D01*
X49903362Y41232576D01*
X49884642Y41246460D01*
X49867372Y41262112D01*
X49851720Y41279382D01*
X49837836Y41298102D01*
X49825854Y41318093D01*
X49815889Y41339163D01*
X49808037Y41361107D01*
X49802373Y41383716D01*
X49798954Y41406771D01*
X49797810Y41430050D01*
X49797810Y41905050D01*
X49798954Y41928329D01*
X49802373Y41951384D01*
X49808037Y41973993D01*
X49815889Y41995937D01*
X49825854Y42017007D01*
X49837836Y42036998D01*
X49851720Y42055718D01*
X49867372Y42072988D01*
X49884642Y42088640D01*
X49903362Y42102524D01*
X49923353Y42114506D01*
X49944423Y42124471D01*
X49966367Y42132323D01*
X49988976Y42137987D01*
X50012031Y42141406D01*
X50035310Y42142550D01*
X50610310Y42142550D01*
X50633589Y42141406D01*
G37*
G36*
X33333509Y61191486D02*
G01*
X33356564Y61188067D01*
X33379173Y61182403D01*
X33401117Y61174551D01*
X33422187Y61164586D01*
X33442178Y61152604D01*
X33460898Y61138720D01*
X33478168Y61123068D01*
X33493820Y61105798D01*
X33507704Y61087078D01*
X33519686Y61067087D01*
X33529651Y61046017D01*
X33537503Y61024073D01*
X33543167Y61001464D01*
X33546586Y60978409D01*
X33547730Y60955130D01*
X33547730Y60480130D01*
X33546586Y60456851D01*
X33543167Y60433796D01*
X33537503Y60411187D01*
X33529651Y60389243D01*
X33519686Y60368173D01*
X33507704Y60348182D01*
X33493820Y60329462D01*
X33478168Y60312192D01*
X33460898Y60296540D01*
X33442178Y60282656D01*
X33422187Y60270674D01*
X33401117Y60260709D01*
X33379173Y60252857D01*
X33356564Y60247193D01*
X33333509Y60243774D01*
X33310230Y60242630D01*
X32735230Y60242630D01*
X32711951Y60243774D01*
X32688896Y60247193D01*
X32666287Y60252857D01*
X32644343Y60260709D01*
X32623273Y60270674D01*
X32603282Y60282656D01*
X32584562Y60296540D01*
X32567292Y60312192D01*
X32551640Y60329462D01*
X32537756Y60348182D01*
X32525774Y60368173D01*
X32515809Y60389243D01*
X32507957Y60411187D01*
X32502293Y60433796D01*
X32498874Y60456851D01*
X32497730Y60480130D01*
X32497730Y60955130D01*
X32498874Y60978409D01*
X32502293Y61001464D01*
X32507957Y61024073D01*
X32515809Y61046017D01*
X32525774Y61067087D01*
X32537756Y61087078D01*
X32551640Y61105798D01*
X32567292Y61123068D01*
X32584562Y61138720D01*
X32603282Y61152604D01*
X32623273Y61164586D01*
X32644343Y61174551D01*
X32666287Y61182403D01*
X32688896Y61188067D01*
X32711951Y61191486D01*
X32735230Y61192630D01*
X33310230Y61192630D01*
X33333509Y61191486D01*
G37*
G36*
X31583509Y61191486D02*
G01*
X31606564Y61188067D01*
X31629173Y61182403D01*
X31651117Y61174551D01*
X31672187Y61164586D01*
X31692178Y61152604D01*
X31710898Y61138720D01*
X31728168Y61123068D01*
X31743820Y61105798D01*
X31757704Y61087078D01*
X31769686Y61067087D01*
X31779651Y61046017D01*
X31787503Y61024073D01*
X31793167Y61001464D01*
X31796586Y60978409D01*
X31797730Y60955130D01*
X31797730Y60480130D01*
X31796586Y60456851D01*
X31793167Y60433796D01*
X31787503Y60411187D01*
X31779651Y60389243D01*
X31769686Y60368173D01*
X31757704Y60348182D01*
X31743820Y60329462D01*
X31728168Y60312192D01*
X31710898Y60296540D01*
X31692178Y60282656D01*
X31672187Y60270674D01*
X31651117Y60260709D01*
X31629173Y60252857D01*
X31606564Y60247193D01*
X31583509Y60243774D01*
X31560230Y60242630D01*
X30985230Y60242630D01*
X30961951Y60243774D01*
X30938896Y60247193D01*
X30916287Y60252857D01*
X30894343Y60260709D01*
X30873273Y60270674D01*
X30853282Y60282656D01*
X30834562Y60296540D01*
X30817292Y60312192D01*
X30801640Y60329462D01*
X30787756Y60348182D01*
X30775774Y60368173D01*
X30765809Y60389243D01*
X30757957Y60411187D01*
X30752293Y60433796D01*
X30748874Y60456851D01*
X30747730Y60480130D01*
X30747730Y60955130D01*
X30748874Y60978409D01*
X30752293Y61001464D01*
X30757957Y61024073D01*
X30765809Y61046017D01*
X30775774Y61067087D01*
X30787756Y61087078D01*
X30801640Y61105798D01*
X30817292Y61123068D01*
X30834562Y61138720D01*
X30853282Y61152604D01*
X30873273Y61164586D01*
X30894343Y61174551D01*
X30916287Y61182403D01*
X30938896Y61188067D01*
X30961951Y61191486D01*
X30985230Y61192630D01*
X31560230Y61192630D01*
X31583509Y61191486D01*
G37*
G36*
X52699219Y61191486D02*
G01*
X52722274Y61188067D01*
X52744883Y61182403D01*
X52766827Y61174551D01*
X52787897Y61164586D01*
X52807888Y61152604D01*
X52826608Y61138720D01*
X52843878Y61123068D01*
X52859530Y61105798D01*
X52873414Y61087078D01*
X52885396Y61067087D01*
X52895361Y61046017D01*
X52903213Y61024073D01*
X52908877Y61001464D01*
X52912296Y60978409D01*
X52913440Y60955130D01*
X52913440Y60480130D01*
X52912296Y60456851D01*
X52908877Y60433796D01*
X52903213Y60411187D01*
X52895361Y60389243D01*
X52885396Y60368173D01*
X52873414Y60348182D01*
X52859530Y60329462D01*
X52843878Y60312192D01*
X52826608Y60296540D01*
X52807888Y60282656D01*
X52787897Y60270674D01*
X52766827Y60260709D01*
X52744883Y60252857D01*
X52722274Y60247193D01*
X52699219Y60243774D01*
X52675940Y60242630D01*
X52100940Y60242630D01*
X52077661Y60243774D01*
X52054606Y60247193D01*
X52031997Y60252857D01*
X52010053Y60260709D01*
X51988983Y60270674D01*
X51968992Y60282656D01*
X51950272Y60296540D01*
X51933002Y60312192D01*
X51917350Y60329462D01*
X51903466Y60348182D01*
X51891484Y60368173D01*
X51881519Y60389243D01*
X51873667Y60411187D01*
X51868003Y60433796D01*
X51864584Y60456851D01*
X51863440Y60480130D01*
X51863440Y60955130D01*
X51864584Y60978409D01*
X51868003Y61001464D01*
X51873667Y61024073D01*
X51881519Y61046017D01*
X51891484Y61067087D01*
X51903466Y61087078D01*
X51917350Y61105798D01*
X51933002Y61123068D01*
X51950272Y61138720D01*
X51968992Y61152604D01*
X51988983Y61164586D01*
X52010053Y61174551D01*
X52031997Y61182403D01*
X52054606Y61188067D01*
X52077661Y61191486D01*
X52100940Y61192630D01*
X52675940Y61192630D01*
X52699219Y61191486D01*
G37*
G36*
X50949219Y61191486D02*
G01*
X50972274Y61188067D01*
X50994883Y61182403D01*
X51016827Y61174551D01*
X51037897Y61164586D01*
X51057888Y61152604D01*
X51076608Y61138720D01*
X51093878Y61123068D01*
X51109530Y61105798D01*
X51123414Y61087078D01*
X51135396Y61067087D01*
X51145361Y61046017D01*
X51153213Y61024073D01*
X51158877Y61001464D01*
X51162296Y60978409D01*
X51163440Y60955130D01*
X51163440Y60480130D01*
X51162296Y60456851D01*
X51158877Y60433796D01*
X51153213Y60411187D01*
X51145361Y60389243D01*
X51135396Y60368173D01*
X51123414Y60348182D01*
X51109530Y60329462D01*
X51093878Y60312192D01*
X51076608Y60296540D01*
X51057888Y60282656D01*
X51037897Y60270674D01*
X51016827Y60260709D01*
X50994883Y60252857D01*
X50972274Y60247193D01*
X50949219Y60243774D01*
X50925940Y60242630D01*
X50350940Y60242630D01*
X50327661Y60243774D01*
X50304606Y60247193D01*
X50281997Y60252857D01*
X50260053Y60260709D01*
X50238983Y60270674D01*
X50218992Y60282656D01*
X50200272Y60296540D01*
X50183002Y60312192D01*
X50167350Y60329462D01*
X50153466Y60348182D01*
X50141484Y60368173D01*
X50131519Y60389243D01*
X50123667Y60411187D01*
X50118003Y60433796D01*
X50114584Y60456851D01*
X50113440Y60480130D01*
X50113440Y60955130D01*
X50114584Y60978409D01*
X50118003Y61001464D01*
X50123667Y61024073D01*
X50131519Y61046017D01*
X50141484Y61067087D01*
X50153466Y61087078D01*
X50167350Y61105798D01*
X50183002Y61123068D01*
X50200272Y61138720D01*
X50218992Y61152604D01*
X50238983Y61164586D01*
X50260053Y61174551D01*
X50281997Y61182403D01*
X50304606Y61188067D01*
X50327661Y61191486D01*
X50350940Y61192630D01*
X50925940Y61192630D01*
X50949219Y61191486D01*
G37*
G36*
X33333509Y80241566D02*
G01*
X33356564Y80238147D01*
X33379173Y80232483D01*
X33401117Y80224631D01*
X33422187Y80214666D01*
X33442178Y80202684D01*
X33460898Y80188800D01*
X33478168Y80173148D01*
X33493820Y80155878D01*
X33507704Y80137158D01*
X33519686Y80117167D01*
X33529651Y80096097D01*
X33537503Y80074153D01*
X33543167Y80051544D01*
X33546586Y80028489D01*
X33547730Y80005210D01*
X33547730Y79530210D01*
X33546586Y79506931D01*
X33543167Y79483876D01*
X33537503Y79461267D01*
X33529651Y79439323D01*
X33519686Y79418253D01*
X33507704Y79398262D01*
X33493820Y79379542D01*
X33478168Y79362272D01*
X33460898Y79346620D01*
X33442178Y79332736D01*
X33422187Y79320754D01*
X33401117Y79310789D01*
X33379173Y79302937D01*
X33356564Y79297273D01*
X33333509Y79293854D01*
X33310230Y79292710D01*
X32735230Y79292710D01*
X32711951Y79293854D01*
X32688896Y79297273D01*
X32666287Y79302937D01*
X32644343Y79310789D01*
X32623273Y79320754D01*
X32603282Y79332736D01*
X32584562Y79346620D01*
X32567292Y79362272D01*
X32551640Y79379542D01*
X32537756Y79398262D01*
X32525774Y79418253D01*
X32515809Y79439323D01*
X32507957Y79461267D01*
X32502293Y79483876D01*
X32498874Y79506931D01*
X32497730Y79530210D01*
X32497730Y80005210D01*
X32498874Y80028489D01*
X32502293Y80051544D01*
X32507957Y80074153D01*
X32515809Y80096097D01*
X32525774Y80117167D01*
X32537756Y80137158D01*
X32551640Y80155878D01*
X32567292Y80173148D01*
X32584562Y80188800D01*
X32603282Y80202684D01*
X32623273Y80214666D01*
X32644343Y80224631D01*
X32666287Y80232483D01*
X32688896Y80238147D01*
X32711951Y80241566D01*
X32735230Y80242710D01*
X33310230Y80242710D01*
X33333509Y80241566D01*
G37*
G36*
X31583509Y80241566D02*
G01*
X31606564Y80238147D01*
X31629173Y80232483D01*
X31651117Y80224631D01*
X31672187Y80214666D01*
X31692178Y80202684D01*
X31710898Y80188800D01*
X31728168Y80173148D01*
X31743820Y80155878D01*
X31757704Y80137158D01*
X31769686Y80117167D01*
X31779651Y80096097D01*
X31787503Y80074153D01*
X31793167Y80051544D01*
X31796586Y80028489D01*
X31797730Y80005210D01*
X31797730Y79530210D01*
X31796586Y79506931D01*
X31793167Y79483876D01*
X31787503Y79461267D01*
X31779651Y79439323D01*
X31769686Y79418253D01*
X31757704Y79398262D01*
X31743820Y79379542D01*
X31728168Y79362272D01*
X31710898Y79346620D01*
X31692178Y79332736D01*
X31672187Y79320754D01*
X31651117Y79310789D01*
X31629173Y79302937D01*
X31606564Y79297273D01*
X31583509Y79293854D01*
X31560230Y79292710D01*
X30985230Y79292710D01*
X30961951Y79293854D01*
X30938896Y79297273D01*
X30916287Y79302937D01*
X30894343Y79310789D01*
X30873273Y79320754D01*
X30853282Y79332736D01*
X30834562Y79346620D01*
X30817292Y79362272D01*
X30801640Y79379542D01*
X30787756Y79398262D01*
X30775774Y79418253D01*
X30765809Y79439323D01*
X30757957Y79461267D01*
X30752293Y79483876D01*
X30748874Y79506931D01*
X30747730Y79530210D01*
X30747730Y80005210D01*
X30748874Y80028489D01*
X30752293Y80051544D01*
X30757957Y80074153D01*
X30765809Y80096097D01*
X30775774Y80117167D01*
X30787756Y80137158D01*
X30801640Y80155878D01*
X30817292Y80173148D01*
X30834562Y80188800D01*
X30853282Y80202684D01*
X30873273Y80214666D01*
X30894343Y80224631D01*
X30916287Y80232483D01*
X30938896Y80238147D01*
X30961951Y80241566D01*
X30985230Y80242710D01*
X31560230Y80242710D01*
X31583509Y80241566D01*
G37*
G36*
X52383589Y80241566D02*
G01*
X52406644Y80238147D01*
X52429253Y80232483D01*
X52451197Y80224631D01*
X52472267Y80214666D01*
X52492258Y80202684D01*
X52510978Y80188800D01*
X52528248Y80173148D01*
X52543900Y80155878D01*
X52557784Y80137158D01*
X52569766Y80117167D01*
X52579731Y80096097D01*
X52587583Y80074153D01*
X52593247Y80051544D01*
X52596666Y80028489D01*
X52597810Y80005210D01*
X52597810Y79530210D01*
X52596666Y79506931D01*
X52593247Y79483876D01*
X52587583Y79461267D01*
X52579731Y79439323D01*
X52569766Y79418253D01*
X52557784Y79398262D01*
X52543900Y79379542D01*
X52528248Y79362272D01*
X52510978Y79346620D01*
X52492258Y79332736D01*
X52472267Y79320754D01*
X52451197Y79310789D01*
X52429253Y79302937D01*
X52406644Y79297273D01*
X52383589Y79293854D01*
X52360310Y79292710D01*
X51785310Y79292710D01*
X51762031Y79293854D01*
X51738976Y79297273D01*
X51716367Y79302937D01*
X51694423Y79310789D01*
X51673353Y79320754D01*
X51653362Y79332736D01*
X51634642Y79346620D01*
X51617372Y79362272D01*
X51601720Y79379542D01*
X51587836Y79398262D01*
X51575854Y79418253D01*
X51565889Y79439323D01*
X51558037Y79461267D01*
X51552373Y79483876D01*
X51548954Y79506931D01*
X51547810Y79530210D01*
X51547810Y80005210D01*
X51548954Y80028489D01*
X51552373Y80051544D01*
X51558037Y80074153D01*
X51565889Y80096097D01*
X51575854Y80117167D01*
X51587836Y80137158D01*
X51601720Y80155878D01*
X51617372Y80173148D01*
X51634642Y80188800D01*
X51653362Y80202684D01*
X51673353Y80214666D01*
X51694423Y80224631D01*
X51716367Y80232483D01*
X51738976Y80238147D01*
X51762031Y80241566D01*
X51785310Y80242710D01*
X52360310Y80242710D01*
X52383589Y80241566D01*
G37*
G36*
X50633589Y80241566D02*
G01*
X50656644Y80238147D01*
X50679253Y80232483D01*
X50701197Y80224631D01*
X50722267Y80214666D01*
X50742258Y80202684D01*
X50760978Y80188800D01*
X50778248Y80173148D01*
X50793900Y80155878D01*
X50807784Y80137158D01*
X50819766Y80117167D01*
X50829731Y80096097D01*
X50837583Y80074153D01*
X50843247Y80051544D01*
X50846666Y80028489D01*
X50847810Y80005210D01*
X50847810Y79530210D01*
X50846666Y79506931D01*
X50843247Y79483876D01*
X50837583Y79461267D01*
X50829731Y79439323D01*
X50819766Y79418253D01*
X50807784Y79398262D01*
X50793900Y79379542D01*
X50778248Y79362272D01*
X50760978Y79346620D01*
X50742258Y79332736D01*
X50722267Y79320754D01*
X50701197Y79310789D01*
X50679253Y79302937D01*
X50656644Y79297273D01*
X50633589Y79293854D01*
X50610310Y79292710D01*
X50035310Y79292710D01*
X50012031Y79293854D01*
X49988976Y79297273D01*
X49966367Y79302937D01*
X49944423Y79310789D01*
X49923353Y79320754D01*
X49903362Y79332736D01*
X49884642Y79346620D01*
X49867372Y79362272D01*
X49851720Y79379542D01*
X49837836Y79398262D01*
X49825854Y79418253D01*
X49815889Y79439323D01*
X49808037Y79461267D01*
X49802373Y79483876D01*
X49798954Y79506931D01*
X49797810Y79530210D01*
X49797810Y80005210D01*
X49798954Y80028489D01*
X49802373Y80051544D01*
X49808037Y80074153D01*
X49815889Y80096097D01*
X49825854Y80117167D01*
X49837836Y80137158D01*
X49851720Y80155878D01*
X49867372Y80173148D01*
X49884642Y80188800D01*
X49903362Y80202684D01*
X49923353Y80214666D01*
X49944423Y80224631D01*
X49966367Y80232483D01*
X49988976Y80238147D01*
X50012031Y80241566D01*
X50035310Y80242710D01*
X50610310Y80242710D01*
X50633589Y80241566D01*
G37*
D13*
X55618740Y24449335D03*
X53918740Y24449335D03*
X55618740Y25549335D03*
X53918740Y25549335D03*
X55618740Y43499335D03*
X53918740Y43499335D03*
X55618740Y44599335D03*
X53918740Y44599335D03*
X55618740Y62549335D03*
X53918740Y62549335D03*
X55618740Y63649335D03*
X53918740Y63649335D03*
X55618740Y81599335D03*
X53918740Y81599335D03*
X55618740Y82699335D03*
X53918740Y82699335D03*
X36568740Y24449335D03*
X34868740Y24449335D03*
X36568740Y25549335D03*
X34868740Y25549335D03*
X36568740Y43499335D03*
X34868740Y43499335D03*
X36568740Y44599335D03*
X34868740Y44599335D03*
X36568740Y62549335D03*
X34868740Y62549335D03*
X36568740Y63649335D03*
X34868740Y63649335D03*
X36568740Y81599335D03*
X34868740Y81599335D03*
X36568740Y82699335D03*
X34868740Y82699335D03*
X17518740Y24449335D03*
X15818740Y24449335D03*
X17518740Y25549335D03*
X15818740Y25549335D03*
X17518740Y43499335D03*
X15818740Y43499335D03*
X17518740Y44599335D03*
X15818740Y44599335D03*
X17518740Y62549335D03*
X15818740Y62549335D03*
X17518740Y63649335D03*
X15818740Y63649335D03*
X17518740Y81599335D03*
X15818740Y81599335D03*
X17518740Y82699335D03*
X15818740Y82699335D03*
D14*
X41168740Y114514960D03*
X41168740Y112614960D03*
X38168740Y113564960D03*
D15*
X9993740Y123764960D03*
X10643740Y123764960D03*
X11293740Y123764960D03*
X11943740Y123764960D03*
X12593740Y123764960D03*
X13243740Y123764960D03*
X13893740Y123764960D03*
X14543740Y123764960D03*
X15193740Y123764960D03*
X15843740Y123764960D03*
X15843740Y117864960D03*
X15193740Y117864960D03*
X14543740Y117864960D03*
X13893740Y117864960D03*
X13243740Y117864960D03*
X12593740Y117864960D03*
X11943740Y117864960D03*
X11293740Y117864960D03*
X10643740Y117864960D03*
X9993740Y117864960D03*
D12*
G36*
X30335779Y93063856D02*
G01*
X30358834Y93060437D01*
X30381443Y93054773D01*
X30403387Y93046921D01*
X30424457Y93036956D01*
X30444448Y93024974D01*
X30463168Y93011090D01*
X30480438Y92995438D01*
X30496090Y92978168D01*
X30509974Y92959448D01*
X30521956Y92939457D01*
X30531921Y92918387D01*
X30539773Y92896443D01*
X30545437Y92873834D01*
X30548856Y92850779D01*
X30550000Y92827500D01*
X30550000Y92352500D01*
X30548856Y92329221D01*
X30545437Y92306166D01*
X30539773Y92283557D01*
X30531921Y92261613D01*
X30521956Y92240543D01*
X30509974Y92220552D01*
X30496090Y92201832D01*
X30480438Y92184562D01*
X30463168Y92168910D01*
X30444448Y92155026D01*
X30424457Y92143044D01*
X30403387Y92133079D01*
X30381443Y92125227D01*
X30358834Y92119563D01*
X30335779Y92116144D01*
X30312500Y92115000D01*
X29737500Y92115000D01*
X29714221Y92116144D01*
X29691166Y92119563D01*
X29668557Y92125227D01*
X29646613Y92133079D01*
X29625543Y92143044D01*
X29605552Y92155026D01*
X29586832Y92168910D01*
X29569562Y92184562D01*
X29553910Y92201832D01*
X29540026Y92220552D01*
X29528044Y92240543D01*
X29518079Y92261613D01*
X29510227Y92283557D01*
X29504563Y92306166D01*
X29501144Y92329221D01*
X29500000Y92352500D01*
X29500000Y92827500D01*
X29501144Y92850779D01*
X29504563Y92873834D01*
X29510227Y92896443D01*
X29518079Y92918387D01*
X29528044Y92939457D01*
X29540026Y92959448D01*
X29553910Y92978168D01*
X29569562Y92995438D01*
X29586832Y93011090D01*
X29605552Y93024974D01*
X29625543Y93036956D01*
X29646613Y93046921D01*
X29668557Y93054773D01*
X29691166Y93060437D01*
X29714221Y93063856D01*
X29737500Y93065000D01*
X30312500Y93065000D01*
X30335779Y93063856D01*
G37*
G36*
X28585779Y93063856D02*
G01*
X28608834Y93060437D01*
X28631443Y93054773D01*
X28653387Y93046921D01*
X28674457Y93036956D01*
X28694448Y93024974D01*
X28713168Y93011090D01*
X28730438Y92995438D01*
X28746090Y92978168D01*
X28759974Y92959448D01*
X28771956Y92939457D01*
X28781921Y92918387D01*
X28789773Y92896443D01*
X28795437Y92873834D01*
X28798856Y92850779D01*
X28800000Y92827500D01*
X28800000Y92352500D01*
X28798856Y92329221D01*
X28795437Y92306166D01*
X28789773Y92283557D01*
X28781921Y92261613D01*
X28771956Y92240543D01*
X28759974Y92220552D01*
X28746090Y92201832D01*
X28730438Y92184562D01*
X28713168Y92168910D01*
X28694448Y92155026D01*
X28674457Y92143044D01*
X28653387Y92133079D01*
X28631443Y92125227D01*
X28608834Y92119563D01*
X28585779Y92116144D01*
X28562500Y92115000D01*
X27987500Y92115000D01*
X27964221Y92116144D01*
X27941166Y92119563D01*
X27918557Y92125227D01*
X27896613Y92133079D01*
X27875543Y92143044D01*
X27855552Y92155026D01*
X27836832Y92168910D01*
X27819562Y92184562D01*
X27803910Y92201832D01*
X27790026Y92220552D01*
X27778044Y92240543D01*
X27768079Y92261613D01*
X27760227Y92283557D01*
X27754563Y92306166D01*
X27751144Y92329221D01*
X27750000Y92352500D01*
X27750000Y92827500D01*
X27751144Y92850779D01*
X27754563Y92873834D01*
X27760227Y92896443D01*
X27768079Y92918387D01*
X27778044Y92939457D01*
X27790026Y92959448D01*
X27803910Y92978168D01*
X27819562Y92995438D01*
X27836832Y93011090D01*
X27855552Y93024974D01*
X27875543Y93036956D01*
X27896613Y93046921D01*
X27918557Y93054773D01*
X27941166Y93060437D01*
X27964221Y93063856D01*
X27987500Y93065000D01*
X28562500Y93065000D01*
X28585779Y93063856D01*
G37*
G36*
X30335779Y91063856D02*
G01*
X30358834Y91060437D01*
X30381443Y91054773D01*
X30403387Y91046921D01*
X30424457Y91036956D01*
X30444448Y91024974D01*
X30463168Y91011090D01*
X30480438Y90995438D01*
X30496090Y90978168D01*
X30509974Y90959448D01*
X30521956Y90939457D01*
X30531921Y90918387D01*
X30539773Y90896443D01*
X30545437Y90873834D01*
X30548856Y90850779D01*
X30550000Y90827500D01*
X30550000Y90352500D01*
X30548856Y90329221D01*
X30545437Y90306166D01*
X30539773Y90283557D01*
X30531921Y90261613D01*
X30521956Y90240543D01*
X30509974Y90220552D01*
X30496090Y90201832D01*
X30480438Y90184562D01*
X30463168Y90168910D01*
X30444448Y90155026D01*
X30424457Y90143044D01*
X30403387Y90133079D01*
X30381443Y90125227D01*
X30358834Y90119563D01*
X30335779Y90116144D01*
X30312500Y90115000D01*
X29737500Y90115000D01*
X29714221Y90116144D01*
X29691166Y90119563D01*
X29668557Y90125227D01*
X29646613Y90133079D01*
X29625543Y90143044D01*
X29605552Y90155026D01*
X29586832Y90168910D01*
X29569562Y90184562D01*
X29553910Y90201832D01*
X29540026Y90220552D01*
X29528044Y90240543D01*
X29518079Y90261613D01*
X29510227Y90283557D01*
X29504563Y90306166D01*
X29501144Y90329221D01*
X29500000Y90352500D01*
X29500000Y90827500D01*
X29501144Y90850779D01*
X29504563Y90873834D01*
X29510227Y90896443D01*
X29518079Y90918387D01*
X29528044Y90939457D01*
X29540026Y90959448D01*
X29553910Y90978168D01*
X29569562Y90995438D01*
X29586832Y91011090D01*
X29605552Y91024974D01*
X29625543Y91036956D01*
X29646613Y91046921D01*
X29668557Y91054773D01*
X29691166Y91060437D01*
X29714221Y91063856D01*
X29737500Y91065000D01*
X30312500Y91065000D01*
X30335779Y91063856D01*
G37*
G36*
X28585779Y91063856D02*
G01*
X28608834Y91060437D01*
X28631443Y91054773D01*
X28653387Y91046921D01*
X28674457Y91036956D01*
X28694448Y91024974D01*
X28713168Y91011090D01*
X28730438Y90995438D01*
X28746090Y90978168D01*
X28759974Y90959448D01*
X28771956Y90939457D01*
X28781921Y90918387D01*
X28789773Y90896443D01*
X28795437Y90873834D01*
X28798856Y90850779D01*
X28800000Y90827500D01*
X28800000Y90352500D01*
X28798856Y90329221D01*
X28795437Y90306166D01*
X28789773Y90283557D01*
X28781921Y90261613D01*
X28771956Y90240543D01*
X28759974Y90220552D01*
X28746090Y90201832D01*
X28730438Y90184562D01*
X28713168Y90168910D01*
X28694448Y90155026D01*
X28674457Y90143044D01*
X28653387Y90133079D01*
X28631443Y90125227D01*
X28608834Y90119563D01*
X28585779Y90116144D01*
X28562500Y90115000D01*
X27987500Y90115000D01*
X27964221Y90116144D01*
X27941166Y90119563D01*
X27918557Y90125227D01*
X27896613Y90133079D01*
X27875543Y90143044D01*
X27855552Y90155026D01*
X27836832Y90168910D01*
X27819562Y90184562D01*
X27803910Y90201832D01*
X27790026Y90220552D01*
X27778044Y90240543D01*
X27768079Y90261613D01*
X27760227Y90283557D01*
X27754563Y90306166D01*
X27751144Y90329221D01*
X27750000Y90352500D01*
X27750000Y90827500D01*
X27751144Y90850779D01*
X27754563Y90873834D01*
X27760227Y90896443D01*
X27768079Y90918387D01*
X27778044Y90939457D01*
X27790026Y90959448D01*
X27803910Y90978168D01*
X27819562Y90995438D01*
X27836832Y91011090D01*
X27855552Y91024974D01*
X27875543Y91036956D01*
X27896613Y91046921D01*
X27918557Y91054773D01*
X27941166Y91060437D01*
X27964221Y91063856D01*
X27987500Y91065000D01*
X28562500Y91065000D01*
X28585779Y91063856D01*
G37*
G36*
X28585779Y89663856D02*
G01*
X28608834Y89660437D01*
X28631443Y89654773D01*
X28653387Y89646921D01*
X28674457Y89636956D01*
X28694448Y89624974D01*
X28713168Y89611090D01*
X28730438Y89595438D01*
X28746090Y89578168D01*
X28759974Y89559448D01*
X28771956Y89539457D01*
X28781921Y89518387D01*
X28789773Y89496443D01*
X28795437Y89473834D01*
X28798856Y89450779D01*
X28800000Y89427500D01*
X28800000Y88952500D01*
X28798856Y88929221D01*
X28795437Y88906166D01*
X28789773Y88883557D01*
X28781921Y88861613D01*
X28771956Y88840543D01*
X28759974Y88820552D01*
X28746090Y88801832D01*
X28730438Y88784562D01*
X28713168Y88768910D01*
X28694448Y88755026D01*
X28674457Y88743044D01*
X28653387Y88733079D01*
X28631443Y88725227D01*
X28608834Y88719563D01*
X28585779Y88716144D01*
X28562500Y88715000D01*
X27987500Y88715000D01*
X27964221Y88716144D01*
X27941166Y88719563D01*
X27918557Y88725227D01*
X27896613Y88733079D01*
X27875543Y88743044D01*
X27855552Y88755026D01*
X27836832Y88768910D01*
X27819562Y88784562D01*
X27803910Y88801832D01*
X27790026Y88820552D01*
X27778044Y88840543D01*
X27768079Y88861613D01*
X27760227Y88883557D01*
X27754563Y88906166D01*
X27751144Y88929221D01*
X27750000Y88952500D01*
X27750000Y89427500D01*
X27751144Y89450779D01*
X27754563Y89473834D01*
X27760227Y89496443D01*
X27768079Y89518387D01*
X27778044Y89539457D01*
X27790026Y89559448D01*
X27803910Y89578168D01*
X27819562Y89595438D01*
X27836832Y89611090D01*
X27855552Y89624974D01*
X27875543Y89636956D01*
X27896613Y89646921D01*
X27918557Y89654773D01*
X27941166Y89660437D01*
X27964221Y89663856D01*
X27987500Y89665000D01*
X28562500Y89665000D01*
X28585779Y89663856D01*
G37*
G36*
X30335779Y89663856D02*
G01*
X30358834Y89660437D01*
X30381443Y89654773D01*
X30403387Y89646921D01*
X30424457Y89636956D01*
X30444448Y89624974D01*
X30463168Y89611090D01*
X30480438Y89595438D01*
X30496090Y89578168D01*
X30509974Y89559448D01*
X30521956Y89539457D01*
X30531921Y89518387D01*
X30539773Y89496443D01*
X30545437Y89473834D01*
X30548856Y89450779D01*
X30550000Y89427500D01*
X30550000Y88952500D01*
X30548856Y88929221D01*
X30545437Y88906166D01*
X30539773Y88883557D01*
X30531921Y88861613D01*
X30521956Y88840543D01*
X30509974Y88820552D01*
X30496090Y88801832D01*
X30480438Y88784562D01*
X30463168Y88768910D01*
X30444448Y88755026D01*
X30424457Y88743044D01*
X30403387Y88733079D01*
X30381443Y88725227D01*
X30358834Y88719563D01*
X30335779Y88716144D01*
X30312500Y88715000D01*
X29737500Y88715000D01*
X29714221Y88716144D01*
X29691166Y88719563D01*
X29668557Y88725227D01*
X29646613Y88733079D01*
X29625543Y88743044D01*
X29605552Y88755026D01*
X29586832Y88768910D01*
X29569562Y88784562D01*
X29553910Y88801832D01*
X29540026Y88820552D01*
X29528044Y88840543D01*
X29518079Y88861613D01*
X29510227Y88883557D01*
X29504563Y88906166D01*
X29501144Y88929221D01*
X29500000Y88952500D01*
X29500000Y89427500D01*
X29501144Y89450779D01*
X29504563Y89473834D01*
X29510227Y89496443D01*
X29518079Y89518387D01*
X29528044Y89539457D01*
X29540026Y89559448D01*
X29553910Y89578168D01*
X29569562Y89595438D01*
X29586832Y89611090D01*
X29605552Y89624974D01*
X29625543Y89636956D01*
X29646613Y89646921D01*
X29668557Y89654773D01*
X29691166Y89660437D01*
X29714221Y89663856D01*
X29737500Y89665000D01*
X30312500Y89665000D01*
X30335779Y89663856D01*
G37*
G36*
X46429519Y115713816D02*
G01*
X46452574Y115710397D01*
X46475183Y115704733D01*
X46497127Y115696881D01*
X46518197Y115686916D01*
X46538188Y115674934D01*
X46556908Y115661050D01*
X46574178Y115645398D01*
X46589830Y115628128D01*
X46603714Y115609408D01*
X46615696Y115589417D01*
X46625661Y115568347D01*
X46633513Y115546403D01*
X46639177Y115523794D01*
X46642596Y115500739D01*
X46643740Y115477460D01*
X46643740Y114902460D01*
X46642596Y114879181D01*
X46639177Y114856126D01*
X46633513Y114833517D01*
X46625661Y114811573D01*
X46615696Y114790503D01*
X46603714Y114770512D01*
X46589830Y114751792D01*
X46574178Y114734522D01*
X46556908Y114718870D01*
X46538188Y114704986D01*
X46518197Y114693004D01*
X46497127Y114683039D01*
X46475183Y114675187D01*
X46452574Y114669523D01*
X46429519Y114666104D01*
X46406240Y114664960D01*
X45931240Y114664960D01*
X45907961Y114666104D01*
X45884906Y114669523D01*
X45862297Y114675187D01*
X45840353Y114683039D01*
X45819283Y114693004D01*
X45799292Y114704986D01*
X45780572Y114718870D01*
X45763302Y114734522D01*
X45747650Y114751792D01*
X45733766Y114770512D01*
X45721784Y114790503D01*
X45711819Y114811573D01*
X45703967Y114833517D01*
X45698303Y114856126D01*
X45694884Y114879181D01*
X45693740Y114902460D01*
X45693740Y115477460D01*
X45694884Y115500739D01*
X45698303Y115523794D01*
X45703967Y115546403D01*
X45711819Y115568347D01*
X45721784Y115589417D01*
X45733766Y115609408D01*
X45747650Y115628128D01*
X45763302Y115645398D01*
X45780572Y115661050D01*
X45799292Y115674934D01*
X45819283Y115686916D01*
X45840353Y115696881D01*
X45862297Y115704733D01*
X45884906Y115710397D01*
X45907961Y115713816D01*
X45931240Y115714960D01*
X46406240Y115714960D01*
X46429519Y115713816D01*
G37*
G36*
X46429519Y117463816D02*
G01*
X46452574Y117460397D01*
X46475183Y117454733D01*
X46497127Y117446881D01*
X46518197Y117436916D01*
X46538188Y117424934D01*
X46556908Y117411050D01*
X46574178Y117395398D01*
X46589830Y117378128D01*
X46603714Y117359408D01*
X46615696Y117339417D01*
X46625661Y117318347D01*
X46633513Y117296403D01*
X46639177Y117273794D01*
X46642596Y117250739D01*
X46643740Y117227460D01*
X46643740Y116652460D01*
X46642596Y116629181D01*
X46639177Y116606126D01*
X46633513Y116583517D01*
X46625661Y116561573D01*
X46615696Y116540503D01*
X46603714Y116520512D01*
X46589830Y116501792D01*
X46574178Y116484522D01*
X46556908Y116468870D01*
X46538188Y116454986D01*
X46518197Y116443004D01*
X46497127Y116433039D01*
X46475183Y116425187D01*
X46452574Y116419523D01*
X46429519Y116416104D01*
X46406240Y116414960D01*
X45931240Y116414960D01*
X45907961Y116416104D01*
X45884906Y116419523D01*
X45862297Y116425187D01*
X45840353Y116433039D01*
X45819283Y116443004D01*
X45799292Y116454986D01*
X45780572Y116468870D01*
X45763302Y116484522D01*
X45747650Y116501792D01*
X45733766Y116520512D01*
X45721784Y116540503D01*
X45711819Y116561573D01*
X45703967Y116583517D01*
X45698303Y116606126D01*
X45694884Y116629181D01*
X45693740Y116652460D01*
X45693740Y117227460D01*
X45694884Y117250739D01*
X45698303Y117273794D01*
X45703967Y117296403D01*
X45711819Y117318347D01*
X45721784Y117339417D01*
X45733766Y117359408D01*
X45747650Y117378128D01*
X45763302Y117395398D01*
X45780572Y117411050D01*
X45799292Y117424934D01*
X45819283Y117436916D01*
X45840353Y117446881D01*
X45862297Y117454733D01*
X45884906Y117460397D01*
X45907961Y117463816D01*
X45931240Y117464960D01*
X46406240Y117464960D01*
X46429519Y117463816D01*
G37*
G36*
X34929519Y115713816D02*
G01*
X34952574Y115710397D01*
X34975183Y115704733D01*
X34997127Y115696881D01*
X35018197Y115686916D01*
X35038188Y115674934D01*
X35056908Y115661050D01*
X35074178Y115645398D01*
X35089830Y115628128D01*
X35103714Y115609408D01*
X35115696Y115589417D01*
X35125661Y115568347D01*
X35133513Y115546403D01*
X35139177Y115523794D01*
X35142596Y115500739D01*
X35143740Y115477460D01*
X35143740Y114902460D01*
X35142596Y114879181D01*
X35139177Y114856126D01*
X35133513Y114833517D01*
X35125661Y114811573D01*
X35115696Y114790503D01*
X35103714Y114770512D01*
X35089830Y114751792D01*
X35074178Y114734522D01*
X35056908Y114718870D01*
X35038188Y114704986D01*
X35018197Y114693004D01*
X34997127Y114683039D01*
X34975183Y114675187D01*
X34952574Y114669523D01*
X34929519Y114666104D01*
X34906240Y114664960D01*
X34431240Y114664960D01*
X34407961Y114666104D01*
X34384906Y114669523D01*
X34362297Y114675187D01*
X34340353Y114683039D01*
X34319283Y114693004D01*
X34299292Y114704986D01*
X34280572Y114718870D01*
X34263302Y114734522D01*
X34247650Y114751792D01*
X34233766Y114770512D01*
X34221784Y114790503D01*
X34211819Y114811573D01*
X34203967Y114833517D01*
X34198303Y114856126D01*
X34194884Y114879181D01*
X34193740Y114902460D01*
X34193740Y115477460D01*
X34194884Y115500739D01*
X34198303Y115523794D01*
X34203967Y115546403D01*
X34211819Y115568347D01*
X34221784Y115589417D01*
X34233766Y115609408D01*
X34247650Y115628128D01*
X34263302Y115645398D01*
X34280572Y115661050D01*
X34299292Y115674934D01*
X34319283Y115686916D01*
X34340353Y115696881D01*
X34362297Y115704733D01*
X34384906Y115710397D01*
X34407961Y115713816D01*
X34431240Y115714960D01*
X34906240Y115714960D01*
X34929519Y115713816D01*
G37*
G36*
X34929519Y117463816D02*
G01*
X34952574Y117460397D01*
X34975183Y117454733D01*
X34997127Y117446881D01*
X35018197Y117436916D01*
X35038188Y117424934D01*
X35056908Y117411050D01*
X35074178Y117395398D01*
X35089830Y117378128D01*
X35103714Y117359408D01*
X35115696Y117339417D01*
X35125661Y117318347D01*
X35133513Y117296403D01*
X35139177Y117273794D01*
X35142596Y117250739D01*
X35143740Y117227460D01*
X35143740Y116652460D01*
X35142596Y116629181D01*
X35139177Y116606126D01*
X35133513Y116583517D01*
X35125661Y116561573D01*
X35115696Y116540503D01*
X35103714Y116520512D01*
X35089830Y116501792D01*
X35074178Y116484522D01*
X35056908Y116468870D01*
X35038188Y116454986D01*
X35018197Y116443004D01*
X34997127Y116433039D01*
X34975183Y116425187D01*
X34952574Y116419523D01*
X34929519Y116416104D01*
X34906240Y116414960D01*
X34431240Y116414960D01*
X34407961Y116416104D01*
X34384906Y116419523D01*
X34362297Y116425187D01*
X34340353Y116433039D01*
X34319283Y116443004D01*
X34299292Y116454986D01*
X34280572Y116468870D01*
X34263302Y116484522D01*
X34247650Y116501792D01*
X34233766Y116520512D01*
X34221784Y116540503D01*
X34211819Y116561573D01*
X34203967Y116583517D01*
X34198303Y116606126D01*
X34194884Y116629181D01*
X34193740Y116652460D01*
X34193740Y117227460D01*
X34194884Y117250739D01*
X34198303Y117273794D01*
X34203967Y117296403D01*
X34211819Y117318347D01*
X34221784Y117339417D01*
X34233766Y117359408D01*
X34247650Y117378128D01*
X34263302Y117395398D01*
X34280572Y117411050D01*
X34299292Y117424934D01*
X34319283Y117436916D01*
X34340353Y117446881D01*
X34362297Y117454733D01*
X34384906Y117460397D01*
X34407961Y117463816D01*
X34431240Y117464960D01*
X34906240Y117464960D01*
X34929519Y117463816D01*
G37*
D16*
X48478740Y11584960D03*
X62328740Y14124960D03*
X48478740Y30634960D03*
X62328740Y33174960D03*
X48478740Y49684960D03*
X62328740Y52224960D03*
X48478740Y68734960D03*
X62328740Y71274960D03*
X29428740Y11584960D03*
X43278740Y14124960D03*
X29428740Y30634960D03*
X43278740Y33174960D03*
X29428740Y49684960D03*
X43278740Y52224960D03*
X29428740Y68734960D03*
X43278740Y71274960D03*
X10378740Y11584960D03*
X24228740Y14124960D03*
X10378740Y30634960D03*
X24228740Y33174960D03*
X10378740Y49684960D03*
X24228740Y52224960D03*
X10378740Y68734960D03*
X24228740Y71274960D03*
D12*
G36*
X25643244Y115938756D02*
G01*
X25667513Y115935156D01*
X25691311Y115929195D01*
X25714411Y115920930D01*
X25736589Y115910440D01*
X25757633Y115897827D01*
X25777338Y115883213D01*
X25795517Y115866737D01*
X25811993Y115848558D01*
X25826607Y115828853D01*
X25839220Y115807809D01*
X25849710Y115785631D01*
X25857975Y115762531D01*
X25863936Y115738733D01*
X25867536Y115714464D01*
X25868740Y115689960D01*
X25868740Y114439960D01*
X25867536Y114415456D01*
X25863936Y114391187D01*
X25857975Y114367389D01*
X25849710Y114344289D01*
X25839220Y114322111D01*
X25826607Y114301067D01*
X25811993Y114281362D01*
X25795517Y114263183D01*
X25777338Y114246707D01*
X25757633Y114232093D01*
X25736589Y114219480D01*
X25714411Y114208990D01*
X25691311Y114200725D01*
X25667513Y114194764D01*
X25643244Y114191164D01*
X25618740Y114189960D01*
X24693740Y114189960D01*
X24669236Y114191164D01*
X24644967Y114194764D01*
X24621169Y114200725D01*
X24598069Y114208990D01*
X24575891Y114219480D01*
X24554847Y114232093D01*
X24535142Y114246707D01*
X24516963Y114263183D01*
X24500487Y114281362D01*
X24485873Y114301067D01*
X24473260Y114322111D01*
X24462770Y114344289D01*
X24454505Y114367389D01*
X24448544Y114391187D01*
X24444944Y114415456D01*
X24443740Y114439960D01*
X24443740Y115689960D01*
X24444944Y115714464D01*
X24448544Y115738733D01*
X24454505Y115762531D01*
X24462770Y115785631D01*
X24473260Y115807809D01*
X24485873Y115828853D01*
X24500487Y115848558D01*
X24516963Y115866737D01*
X24535142Y115883213D01*
X24554847Y115897827D01*
X24575891Y115910440D01*
X24598069Y115920930D01*
X24621169Y115929195D01*
X24644967Y115935156D01*
X24669236Y115938756D01*
X24693740Y115939960D01*
X25618740Y115939960D01*
X25643244Y115938756D01*
G37*
G36*
X22668244Y115938756D02*
G01*
X22692513Y115935156D01*
X22716311Y115929195D01*
X22739411Y115920930D01*
X22761589Y115910440D01*
X22782633Y115897827D01*
X22802338Y115883213D01*
X22820517Y115866737D01*
X22836993Y115848558D01*
X22851607Y115828853D01*
X22864220Y115807809D01*
X22874710Y115785631D01*
X22882975Y115762531D01*
X22888936Y115738733D01*
X22892536Y115714464D01*
X22893740Y115689960D01*
X22893740Y114439960D01*
X22892536Y114415456D01*
X22888936Y114391187D01*
X22882975Y114367389D01*
X22874710Y114344289D01*
X22864220Y114322111D01*
X22851607Y114301067D01*
X22836993Y114281362D01*
X22820517Y114263183D01*
X22802338Y114246707D01*
X22782633Y114232093D01*
X22761589Y114219480D01*
X22739411Y114208990D01*
X22716311Y114200725D01*
X22692513Y114194764D01*
X22668244Y114191164D01*
X22643740Y114189960D01*
X21718740Y114189960D01*
X21694236Y114191164D01*
X21669967Y114194764D01*
X21646169Y114200725D01*
X21623069Y114208990D01*
X21600891Y114219480D01*
X21579847Y114232093D01*
X21560142Y114246707D01*
X21541963Y114263183D01*
X21525487Y114281362D01*
X21510873Y114301067D01*
X21498260Y114322111D01*
X21487770Y114344289D01*
X21479505Y114367389D01*
X21473544Y114391187D01*
X21469944Y114415456D01*
X21468740Y114439960D01*
X21468740Y115689960D01*
X21469944Y115714464D01*
X21473544Y115738733D01*
X21479505Y115762531D01*
X21487770Y115785631D01*
X21498260Y115807809D01*
X21510873Y115828853D01*
X21525487Y115848558D01*
X21541963Y115866737D01*
X21560142Y115883213D01*
X21579847Y115897827D01*
X21600891Y115910440D01*
X21623069Y115920930D01*
X21646169Y115929195D01*
X21669967Y115935156D01*
X21694236Y115938756D01*
X21718740Y115939960D01*
X22643740Y115939960D01*
X22668244Y115938756D01*
G37*
D17*
X38268740Y110564960D03*
X41068740Y110564960D03*
X29668740Y117964960D03*
X29668740Y115164960D03*
D18*
X44053115Y65021210D03*
X44053115Y68321210D03*
X63103115Y45971210D03*
X63103115Y49271210D03*
X63104110Y7870540D03*
X63104110Y11170540D03*
X63103115Y26921210D03*
X63103115Y30221210D03*
X63104110Y84070860D03*
X63104110Y87370860D03*
X63103115Y65021210D03*
X63103115Y68321210D03*
X44053115Y7871210D03*
X44053115Y11171210D03*
X44053115Y26921210D03*
X44053115Y30221210D03*
X44053115Y45971210D03*
X44053115Y49271210D03*
X25003950Y84070860D03*
X25003950Y87370860D03*
X25003115Y7871210D03*
X25003115Y11171210D03*
X25003115Y26921210D03*
X25003115Y30221210D03*
X25003115Y45971210D03*
X25003115Y49271210D03*
X25003115Y65021210D03*
X25003115Y68321210D03*
D12*
G36*
X28585779Y94563856D02*
G01*
X28608834Y94560437D01*
X28631443Y94554773D01*
X28653387Y94546921D01*
X28674457Y94536956D01*
X28694448Y94524974D01*
X28713168Y94511090D01*
X28730438Y94495438D01*
X28746090Y94478168D01*
X28759974Y94459448D01*
X28771956Y94439457D01*
X28781921Y94418387D01*
X28789773Y94396443D01*
X28795437Y94373834D01*
X28798856Y94350779D01*
X28800000Y94327500D01*
X28800000Y93852500D01*
X28798856Y93829221D01*
X28795437Y93806166D01*
X28789773Y93783557D01*
X28781921Y93761613D01*
X28771956Y93740543D01*
X28759974Y93720552D01*
X28746090Y93701832D01*
X28730438Y93684562D01*
X28713168Y93668910D01*
X28694448Y93655026D01*
X28674457Y93643044D01*
X28653387Y93633079D01*
X28631443Y93625227D01*
X28608834Y93619563D01*
X28585779Y93616144D01*
X28562500Y93615000D01*
X27987500Y93615000D01*
X27964221Y93616144D01*
X27941166Y93619563D01*
X27918557Y93625227D01*
X27896613Y93633079D01*
X27875543Y93643044D01*
X27855552Y93655026D01*
X27836832Y93668910D01*
X27819562Y93684562D01*
X27803910Y93701832D01*
X27790026Y93720552D01*
X27778044Y93740543D01*
X27768079Y93761613D01*
X27760227Y93783557D01*
X27754563Y93806166D01*
X27751144Y93829221D01*
X27750000Y93852500D01*
X27750000Y94327500D01*
X27751144Y94350779D01*
X27754563Y94373834D01*
X27760227Y94396443D01*
X27768079Y94418387D01*
X27778044Y94439457D01*
X27790026Y94459448D01*
X27803910Y94478168D01*
X27819562Y94495438D01*
X27836832Y94511090D01*
X27855552Y94524974D01*
X27875543Y94536956D01*
X27896613Y94546921D01*
X27918557Y94554773D01*
X27941166Y94560437D01*
X27964221Y94563856D01*
X27987500Y94565000D01*
X28562500Y94565000D01*
X28585779Y94563856D01*
G37*
G36*
X30335779Y94563856D02*
G01*
X30358834Y94560437D01*
X30381443Y94554773D01*
X30403387Y94546921D01*
X30424457Y94536956D01*
X30444448Y94524974D01*
X30463168Y94511090D01*
X30480438Y94495438D01*
X30496090Y94478168D01*
X30509974Y94459448D01*
X30521956Y94439457D01*
X30531921Y94418387D01*
X30539773Y94396443D01*
X30545437Y94373834D01*
X30548856Y94350779D01*
X30550000Y94327500D01*
X30550000Y93852500D01*
X30548856Y93829221D01*
X30545437Y93806166D01*
X30539773Y93783557D01*
X30531921Y93761613D01*
X30521956Y93740543D01*
X30509974Y93720552D01*
X30496090Y93701832D01*
X30480438Y93684562D01*
X30463168Y93668910D01*
X30444448Y93655026D01*
X30424457Y93643044D01*
X30403387Y93633079D01*
X30381443Y93625227D01*
X30358834Y93619563D01*
X30335779Y93616144D01*
X30312500Y93615000D01*
X29737500Y93615000D01*
X29714221Y93616144D01*
X29691166Y93619563D01*
X29668557Y93625227D01*
X29646613Y93633079D01*
X29625543Y93643044D01*
X29605552Y93655026D01*
X29586832Y93668910D01*
X29569562Y93684562D01*
X29553910Y93701832D01*
X29540026Y93720552D01*
X29528044Y93740543D01*
X29518079Y93761613D01*
X29510227Y93783557D01*
X29504563Y93806166D01*
X29501144Y93829221D01*
X29500000Y93852500D01*
X29500000Y94327500D01*
X29501144Y94350779D01*
X29504563Y94373834D01*
X29510227Y94396443D01*
X29518079Y94418387D01*
X29528044Y94439457D01*
X29540026Y94459448D01*
X29553910Y94478168D01*
X29569562Y94495438D01*
X29586832Y94511090D01*
X29605552Y94524974D01*
X29625543Y94536956D01*
X29646613Y94546921D01*
X29668557Y94554773D01*
X29691166Y94560437D01*
X29714221Y94563856D01*
X29737500Y94565000D01*
X30312500Y94565000D01*
X30335779Y94563856D01*
G37*
G36*
X28585779Y96063856D02*
G01*
X28608834Y96060437D01*
X28631443Y96054773D01*
X28653387Y96046921D01*
X28674457Y96036956D01*
X28694448Y96024974D01*
X28713168Y96011090D01*
X28730438Y95995438D01*
X28746090Y95978168D01*
X28759974Y95959448D01*
X28771956Y95939457D01*
X28781921Y95918387D01*
X28789773Y95896443D01*
X28795437Y95873834D01*
X28798856Y95850779D01*
X28800000Y95827500D01*
X28800000Y95352500D01*
X28798856Y95329221D01*
X28795437Y95306166D01*
X28789773Y95283557D01*
X28781921Y95261613D01*
X28771956Y95240543D01*
X28759974Y95220552D01*
X28746090Y95201832D01*
X28730438Y95184562D01*
X28713168Y95168910D01*
X28694448Y95155026D01*
X28674457Y95143044D01*
X28653387Y95133079D01*
X28631443Y95125227D01*
X28608834Y95119563D01*
X28585779Y95116144D01*
X28562500Y95115000D01*
X27987500Y95115000D01*
X27964221Y95116144D01*
X27941166Y95119563D01*
X27918557Y95125227D01*
X27896613Y95133079D01*
X27875543Y95143044D01*
X27855552Y95155026D01*
X27836832Y95168910D01*
X27819562Y95184562D01*
X27803910Y95201832D01*
X27790026Y95220552D01*
X27778044Y95240543D01*
X27768079Y95261613D01*
X27760227Y95283557D01*
X27754563Y95306166D01*
X27751144Y95329221D01*
X27750000Y95352500D01*
X27750000Y95827500D01*
X27751144Y95850779D01*
X27754563Y95873834D01*
X27760227Y95896443D01*
X27768079Y95918387D01*
X27778044Y95939457D01*
X27790026Y95959448D01*
X27803910Y95978168D01*
X27819562Y95995438D01*
X27836832Y96011090D01*
X27855552Y96024974D01*
X27875543Y96036956D01*
X27896613Y96046921D01*
X27918557Y96054773D01*
X27941166Y96060437D01*
X27964221Y96063856D01*
X27987500Y96065000D01*
X28562500Y96065000D01*
X28585779Y96063856D01*
G37*
G36*
X30335779Y96063856D02*
G01*
X30358834Y96060437D01*
X30381443Y96054773D01*
X30403387Y96046921D01*
X30424457Y96036956D01*
X30444448Y96024974D01*
X30463168Y96011090D01*
X30480438Y95995438D01*
X30496090Y95978168D01*
X30509974Y95959448D01*
X30521956Y95939457D01*
X30531921Y95918387D01*
X30539773Y95896443D01*
X30545437Y95873834D01*
X30548856Y95850779D01*
X30550000Y95827500D01*
X30550000Y95352500D01*
X30548856Y95329221D01*
X30545437Y95306166D01*
X30539773Y95283557D01*
X30531921Y95261613D01*
X30521956Y95240543D01*
X30509974Y95220552D01*
X30496090Y95201832D01*
X30480438Y95184562D01*
X30463168Y95168910D01*
X30444448Y95155026D01*
X30424457Y95143044D01*
X30403387Y95133079D01*
X30381443Y95125227D01*
X30358834Y95119563D01*
X30335779Y95116144D01*
X30312500Y95115000D01*
X29737500Y95115000D01*
X29714221Y95116144D01*
X29691166Y95119563D01*
X29668557Y95125227D01*
X29646613Y95133079D01*
X29625543Y95143044D01*
X29605552Y95155026D01*
X29586832Y95168910D01*
X29569562Y95184562D01*
X29553910Y95201832D01*
X29540026Y95220552D01*
X29528044Y95240543D01*
X29518079Y95261613D01*
X29510227Y95283557D01*
X29504563Y95306166D01*
X29501144Y95329221D01*
X29500000Y95352500D01*
X29500000Y95827500D01*
X29501144Y95850779D01*
X29504563Y95873834D01*
X29510227Y95896443D01*
X29518079Y95918387D01*
X29528044Y95939457D01*
X29540026Y95959448D01*
X29553910Y95978168D01*
X29569562Y95995438D01*
X29586832Y96011090D01*
X29605552Y96024974D01*
X29625543Y96036956D01*
X29646613Y96046921D01*
X29668557Y96054773D01*
X29691166Y96060437D01*
X29714221Y96063856D01*
X29737500Y96065000D01*
X30312500Y96065000D01*
X30335779Y96063856D01*
G37*
G36*
X44929519Y117463816D02*
G01*
X44952574Y117460397D01*
X44975183Y117454733D01*
X44997127Y117446881D01*
X45018197Y117436916D01*
X45038188Y117424934D01*
X45056908Y117411050D01*
X45074178Y117395398D01*
X45089830Y117378128D01*
X45103714Y117359408D01*
X45115696Y117339417D01*
X45125661Y117318347D01*
X45133513Y117296403D01*
X45139177Y117273794D01*
X45142596Y117250739D01*
X45143740Y117227460D01*
X45143740Y116652460D01*
X45142596Y116629181D01*
X45139177Y116606126D01*
X45133513Y116583517D01*
X45125661Y116561573D01*
X45115696Y116540503D01*
X45103714Y116520512D01*
X45089830Y116501792D01*
X45074178Y116484522D01*
X45056908Y116468870D01*
X45038188Y116454986D01*
X45018197Y116443004D01*
X44997127Y116433039D01*
X44975183Y116425187D01*
X44952574Y116419523D01*
X44929519Y116416104D01*
X44906240Y116414960D01*
X44431240Y116414960D01*
X44407961Y116416104D01*
X44384906Y116419523D01*
X44362297Y116425187D01*
X44340353Y116433039D01*
X44319283Y116443004D01*
X44299292Y116454986D01*
X44280572Y116468870D01*
X44263302Y116484522D01*
X44247650Y116501792D01*
X44233766Y116520512D01*
X44221784Y116540503D01*
X44211819Y116561573D01*
X44203967Y116583517D01*
X44198303Y116606126D01*
X44194884Y116629181D01*
X44193740Y116652460D01*
X44193740Y117227460D01*
X44194884Y117250739D01*
X44198303Y117273794D01*
X44203967Y117296403D01*
X44211819Y117318347D01*
X44221784Y117339417D01*
X44233766Y117359408D01*
X44247650Y117378128D01*
X44263302Y117395398D01*
X44280572Y117411050D01*
X44299292Y117424934D01*
X44319283Y117436916D01*
X44340353Y117446881D01*
X44362297Y117454733D01*
X44384906Y117460397D01*
X44407961Y117463816D01*
X44431240Y117464960D01*
X44906240Y117464960D01*
X44929519Y117463816D01*
G37*
G36*
X44929519Y115713816D02*
G01*
X44952574Y115710397D01*
X44975183Y115704733D01*
X44997127Y115696881D01*
X45018197Y115686916D01*
X45038188Y115674934D01*
X45056908Y115661050D01*
X45074178Y115645398D01*
X45089830Y115628128D01*
X45103714Y115609408D01*
X45115696Y115589417D01*
X45125661Y115568347D01*
X45133513Y115546403D01*
X45139177Y115523794D01*
X45142596Y115500739D01*
X45143740Y115477460D01*
X45143740Y114902460D01*
X45142596Y114879181D01*
X45139177Y114856126D01*
X45133513Y114833517D01*
X45125661Y114811573D01*
X45115696Y114790503D01*
X45103714Y114770512D01*
X45089830Y114751792D01*
X45074178Y114734522D01*
X45056908Y114718870D01*
X45038188Y114704986D01*
X45018197Y114693004D01*
X44997127Y114683039D01*
X44975183Y114675187D01*
X44952574Y114669523D01*
X44929519Y114666104D01*
X44906240Y114664960D01*
X44431240Y114664960D01*
X44407961Y114666104D01*
X44384906Y114669523D01*
X44362297Y114675187D01*
X44340353Y114683039D01*
X44319283Y114693004D01*
X44299292Y114704986D01*
X44280572Y114718870D01*
X44263302Y114734522D01*
X44247650Y114751792D01*
X44233766Y114770512D01*
X44221784Y114790503D01*
X44211819Y114811573D01*
X44203967Y114833517D01*
X44198303Y114856126D01*
X44194884Y114879181D01*
X44193740Y114902460D01*
X44193740Y115477460D01*
X44194884Y115500739D01*
X44198303Y115523794D01*
X44203967Y115546403D01*
X44211819Y115568347D01*
X44221784Y115589417D01*
X44233766Y115609408D01*
X44247650Y115628128D01*
X44263302Y115645398D01*
X44280572Y115661050D01*
X44299292Y115674934D01*
X44319283Y115686916D01*
X44340353Y115696881D01*
X44362297Y115704733D01*
X44384906Y115710397D01*
X44407961Y115713816D01*
X44431240Y115714960D01*
X44906240Y115714960D01*
X44929519Y115713816D01*
G37*
G36*
X33429519Y117463816D02*
G01*
X33452574Y117460397D01*
X33475183Y117454733D01*
X33497127Y117446881D01*
X33518197Y117436916D01*
X33538188Y117424934D01*
X33556908Y117411050D01*
X33574178Y117395398D01*
X33589830Y117378128D01*
X33603714Y117359408D01*
X33615696Y117339417D01*
X33625661Y117318347D01*
X33633513Y117296403D01*
X33639177Y117273794D01*
X33642596Y117250739D01*
X33643740Y117227460D01*
X33643740Y116652460D01*
X33642596Y116629181D01*
X33639177Y116606126D01*
X33633513Y116583517D01*
X33625661Y116561573D01*
X33615696Y116540503D01*
X33603714Y116520512D01*
X33589830Y116501792D01*
X33574178Y116484522D01*
X33556908Y116468870D01*
X33538188Y116454986D01*
X33518197Y116443004D01*
X33497127Y116433039D01*
X33475183Y116425187D01*
X33452574Y116419523D01*
X33429519Y116416104D01*
X33406240Y116414960D01*
X32931240Y116414960D01*
X32907961Y116416104D01*
X32884906Y116419523D01*
X32862297Y116425187D01*
X32840353Y116433039D01*
X32819283Y116443004D01*
X32799292Y116454986D01*
X32780572Y116468870D01*
X32763302Y116484522D01*
X32747650Y116501792D01*
X32733766Y116520512D01*
X32721784Y116540503D01*
X32711819Y116561573D01*
X32703967Y116583517D01*
X32698303Y116606126D01*
X32694884Y116629181D01*
X32693740Y116652460D01*
X32693740Y117227460D01*
X32694884Y117250739D01*
X32698303Y117273794D01*
X32703967Y117296403D01*
X32711819Y117318347D01*
X32721784Y117339417D01*
X32733766Y117359408D01*
X32747650Y117378128D01*
X32763302Y117395398D01*
X32780572Y117411050D01*
X32799292Y117424934D01*
X32819283Y117436916D01*
X32840353Y117446881D01*
X32862297Y117454733D01*
X32884906Y117460397D01*
X32907961Y117463816D01*
X32931240Y117464960D01*
X33406240Y117464960D01*
X33429519Y117463816D01*
G37*
G36*
X33429519Y115713816D02*
G01*
X33452574Y115710397D01*
X33475183Y115704733D01*
X33497127Y115696881D01*
X33518197Y115686916D01*
X33538188Y115674934D01*
X33556908Y115661050D01*
X33574178Y115645398D01*
X33589830Y115628128D01*
X33603714Y115609408D01*
X33615696Y115589417D01*
X33625661Y115568347D01*
X33633513Y115546403D01*
X33639177Y115523794D01*
X33642596Y115500739D01*
X33643740Y115477460D01*
X33643740Y114902460D01*
X33642596Y114879181D01*
X33639177Y114856126D01*
X33633513Y114833517D01*
X33625661Y114811573D01*
X33615696Y114790503D01*
X33603714Y114770512D01*
X33589830Y114751792D01*
X33574178Y114734522D01*
X33556908Y114718870D01*
X33538188Y114704986D01*
X33518197Y114693004D01*
X33497127Y114683039D01*
X33475183Y114675187D01*
X33452574Y114669523D01*
X33429519Y114666104D01*
X33406240Y114664960D01*
X32931240Y114664960D01*
X32907961Y114666104D01*
X32884906Y114669523D01*
X32862297Y114675187D01*
X32840353Y114683039D01*
X32819283Y114693004D01*
X32799292Y114704986D01*
X32780572Y114718870D01*
X32763302Y114734522D01*
X32747650Y114751792D01*
X32733766Y114770512D01*
X32721784Y114790503D01*
X32711819Y114811573D01*
X32703967Y114833517D01*
X32698303Y114856126D01*
X32694884Y114879181D01*
X32693740Y114902460D01*
X32693740Y115477460D01*
X32694884Y115500739D01*
X32698303Y115523794D01*
X32703967Y115546403D01*
X32711819Y115568347D01*
X32721784Y115589417D01*
X32733766Y115609408D01*
X32747650Y115628128D01*
X32763302Y115645398D01*
X32780572Y115661050D01*
X32799292Y115674934D01*
X32819283Y115686916D01*
X32840353Y115696881D01*
X32862297Y115704733D01*
X32884906Y115710397D01*
X32907961Y115713816D01*
X32931240Y115714960D01*
X33406240Y115714960D01*
X33429519Y115713816D01*
G37*
M02*
