G04 #@! TF.GenerationSoftware,KiCad,Pcbnew,(5.1.5)-3*
G04 #@! TF.CreationDate,2020-11-15T12:52:39-05:00*
G04 #@! TF.ProjectId,MgBoard,4d67426f-6172-4642-9e6b-696361645f70,rev?*
G04 #@! TF.SameCoordinates,PX39a64d0PYa4983b0*
G04 #@! TF.FileFunction,Legend,Bot*
G04 #@! TF.FilePolarity,Positive*
%FSLAX46Y46*%
G04 Gerber Fmt 4.6, Leading zero omitted, Abs format (unit mm)*
G04 Created by KiCad (PCBNEW (5.1.5)-3) date 2020-11-15 12:52:39*
%MOMM*%
%LPD*%
G04 APERTURE LIST*
%ADD10C,0.150000*%
%ADD11C,0.120000*%
G04 APERTURE END LIST*
D10*
X33116030Y87492790D02*
X33116030Y88067790D01*
X38866030Y87492790D02*
X38866030Y88142790D01*
X38866030Y98142790D02*
X38866030Y97492790D01*
X33116030Y98142790D02*
X33116030Y97492790D01*
X33116030Y87492790D02*
X38866030Y87492790D01*
X33116030Y98142790D02*
X38866030Y98142790D01*
X33116030Y88067790D02*
X31516030Y88067790D01*
D11*
X48894660Y25367470D02*
X48894660Y24217470D01*
X41594660Y25367470D02*
X48894660Y25367470D01*
X41594660Y19867470D02*
X48894660Y19867470D01*
X22544580Y19867470D02*
X22544580Y21017470D01*
X29844580Y19867470D02*
X22544580Y19867470D01*
X29844580Y25367470D02*
X22544580Y25367470D01*
X48894660Y44417550D02*
X48894660Y43267550D01*
X41594660Y44417550D02*
X48894660Y44417550D01*
X41594660Y38917550D02*
X48894660Y38917550D01*
X22613320Y38917550D02*
X22613320Y40067550D01*
X29913320Y38917550D02*
X22613320Y38917550D01*
X29913320Y44417550D02*
X22613320Y44417550D01*
X48894660Y63467630D02*
X48894660Y62317630D01*
X41594660Y63467630D02*
X48894660Y63467630D01*
X41594660Y57967630D02*
X48894660Y57967630D01*
X22544580Y57967630D02*
X22544580Y59117630D01*
X29844580Y57967630D02*
X22544580Y57967630D01*
X29844580Y63467630D02*
X22544580Y63467630D01*
X48894660Y82517710D02*
X48894660Y81367710D01*
X41594660Y82517710D02*
X48894660Y82517710D01*
X41594660Y77017710D02*
X48894660Y77017710D01*
X22544580Y77017710D02*
X22544580Y78167710D01*
X29844580Y77017710D02*
X22544580Y77017710D01*
X29844580Y82517710D02*
X22544580Y82517710D01*
X31976463Y23127470D02*
X32318997Y23127470D01*
X31976463Y22107470D02*
X32318997Y22107470D01*
X51026543Y23127470D02*
X51369077Y23127470D01*
X51026543Y22107470D02*
X51369077Y22107470D01*
X31976463Y42177550D02*
X32318997Y42177550D01*
X31976463Y41157550D02*
X32318997Y41157550D01*
X51026543Y42177550D02*
X51369077Y42177550D01*
X51026543Y41157550D02*
X51369077Y41157550D01*
X31976463Y61227630D02*
X32318997Y61227630D01*
X31976463Y60207630D02*
X32318997Y60207630D01*
X51342173Y61227630D02*
X51684707Y61227630D01*
X51342173Y60207630D02*
X51684707Y60207630D01*
X31976463Y80277710D02*
X32318997Y80277710D01*
X31976463Y79257710D02*
X32318997Y79257710D01*
X51026543Y80277710D02*
X51369077Y80277710D01*
X51026543Y79257710D02*
X51369077Y79257710D01*
D10*
X53718740Y23949335D02*
X53718740Y26049335D01*
X55818740Y23949335D02*
X53718740Y23949335D01*
X55818740Y26049335D02*
X55818740Y23949335D01*
X53718740Y26049335D02*
X55818740Y26049335D01*
X55489850Y24999335D02*
G75*
G03X55489850Y24999335I-721110J0D01*
G01*
X53718740Y42999335D02*
X53718740Y45099335D01*
X55818740Y42999335D02*
X53718740Y42999335D01*
X55818740Y45099335D02*
X55818740Y42999335D01*
X53718740Y45099335D02*
X55818740Y45099335D01*
X55489850Y44049335D02*
G75*
G03X55489850Y44049335I-721110J0D01*
G01*
X53718740Y62049335D02*
X53718740Y64149335D01*
X55818740Y62049335D02*
X53718740Y62049335D01*
X55818740Y64149335D02*
X55818740Y62049335D01*
X53718740Y64149335D02*
X55818740Y64149335D01*
X55489850Y63099335D02*
G75*
G03X55489850Y63099335I-721110J0D01*
G01*
X53718740Y81099335D02*
X53718740Y83199335D01*
X55818740Y81099335D02*
X53718740Y81099335D01*
X55818740Y83199335D02*
X55818740Y81099335D01*
X53718740Y83199335D02*
X55818740Y83199335D01*
X55489850Y82149335D02*
G75*
G03X55489850Y82149335I-721110J0D01*
G01*
X34668740Y23949335D02*
X34668740Y26049335D01*
X36768740Y23949335D02*
X34668740Y23949335D01*
X36768740Y26049335D02*
X36768740Y23949335D01*
X34668740Y26049335D02*
X36768740Y26049335D01*
X36439850Y24999335D02*
G75*
G03X36439850Y24999335I-721110J0D01*
G01*
X34668740Y42999335D02*
X34668740Y45099335D01*
X36768740Y42999335D02*
X34668740Y42999335D01*
X36768740Y45099335D02*
X36768740Y42999335D01*
X34668740Y45099335D02*
X36768740Y45099335D01*
X36439850Y44049335D02*
G75*
G03X36439850Y44049335I-721110J0D01*
G01*
X34668740Y62049335D02*
X34668740Y64149335D01*
X36768740Y62049335D02*
X34668740Y62049335D01*
X36768740Y64149335D02*
X36768740Y62049335D01*
X34668740Y64149335D02*
X36768740Y64149335D01*
X36439850Y63099335D02*
G75*
G03X36439850Y63099335I-721110J0D01*
G01*
X34668740Y81099335D02*
X34668740Y83199335D01*
X36768740Y81099335D02*
X34668740Y81099335D01*
X36768740Y83199335D02*
X36768740Y81099335D01*
X34668740Y83199335D02*
X36768740Y83199335D01*
X36439850Y82149335D02*
G75*
G03X36439850Y82149335I-721110J0D01*
G01*
X15618740Y23949335D02*
X15618740Y26049335D01*
X17718740Y23949335D02*
X15618740Y23949335D01*
X17718740Y26049335D02*
X17718740Y23949335D01*
X15618740Y26049335D02*
X17718740Y26049335D01*
X17389850Y24999335D02*
G75*
G03X17389850Y24999335I-721110J0D01*
G01*
X15618740Y42999335D02*
X15618740Y45099335D01*
X17718740Y42999335D02*
X15618740Y42999335D01*
X17718740Y45099335D02*
X17718740Y42999335D01*
X15618740Y45099335D02*
X17718740Y45099335D01*
X17389850Y44049335D02*
G75*
G03X17389850Y44049335I-721110J0D01*
G01*
X15618740Y62049335D02*
X15618740Y64149335D01*
X17718740Y62049335D02*
X15618740Y62049335D01*
X17718740Y64149335D02*
X17718740Y62049335D01*
X15618740Y64149335D02*
X17718740Y64149335D01*
X17389850Y63099335D02*
G75*
G03X17389850Y63099335I-721110J0D01*
G01*
X15618740Y81099335D02*
X15618740Y83199335D01*
X17718740Y81099335D02*
X15618740Y81099335D01*
X17718740Y83199335D02*
X17718740Y81099335D01*
X15618740Y83199335D02*
X17718740Y83199335D01*
X17389850Y82149335D02*
G75*
G03X17389850Y82149335I-721110J0D01*
G01*
D11*
X38908740Y111984960D02*
X38908740Y112914960D01*
X38908740Y115144960D02*
X38908740Y114214960D01*
X38908740Y115144960D02*
X42068740Y115144960D01*
X38908740Y111984960D02*
X40368740Y111984960D01*
D10*
X16368740Y123039960D02*
X16368740Y118589960D01*
X9468740Y124564960D02*
X9468740Y118589960D01*
D11*
X29321267Y93100000D02*
X28978733Y93100000D01*
X29321267Y92080000D02*
X28978733Y92080000D01*
X29321267Y91100000D02*
X28978733Y91100000D01*
X29321267Y90080000D02*
X28978733Y90080000D01*
X28978733Y88680000D02*
X29321267Y88680000D01*
X28978733Y89700000D02*
X29321267Y89700000D01*
X46678740Y115893693D02*
X46678740Y116236227D01*
X45658740Y115893693D02*
X45658740Y116236227D01*
X35178740Y115893693D02*
X35178740Y116236227D01*
X34158740Y115893693D02*
X34158740Y116236227D01*
D10*
X61118740Y12219960D02*
G75*
G02X58578740Y9679960I-2540000J0D01*
G01*
X57232902Y16048920D02*
G75*
G02X54768740Y14124960I-2464162J616040D01*
G01*
X61118740Y12219960D02*
X61118740Y12600960D01*
X61118740Y15648960D02*
X61118740Y16029960D01*
X61118740Y16029960D02*
X60737740Y16029960D01*
X58959740Y16029960D02*
X57308740Y16029960D01*
X54768740Y14124960D02*
X49688740Y14124960D01*
X49688740Y14124960D02*
X49688740Y13108960D01*
X49688740Y10060960D02*
X49688740Y9679960D01*
X49688740Y9679960D02*
X58578740Y9679960D01*
X61118740Y31269960D02*
G75*
G02X58578740Y28729960I-2540000J0D01*
G01*
X57232902Y35098920D02*
G75*
G02X54768740Y33174960I-2464162J616040D01*
G01*
X61118740Y31269960D02*
X61118740Y31650960D01*
X61118740Y34698960D02*
X61118740Y35079960D01*
X61118740Y35079960D02*
X60737740Y35079960D01*
X58959740Y35079960D02*
X57308740Y35079960D01*
X54768740Y33174960D02*
X49688740Y33174960D01*
X49688740Y33174960D02*
X49688740Y32158960D01*
X49688740Y29110960D02*
X49688740Y28729960D01*
X49688740Y28729960D02*
X58578740Y28729960D01*
X61118740Y50319960D02*
G75*
G02X58578740Y47779960I-2540000J0D01*
G01*
X57232902Y54148920D02*
G75*
G02X54768740Y52224960I-2464162J616040D01*
G01*
X61118740Y50319960D02*
X61118740Y50700960D01*
X61118740Y53748960D02*
X61118740Y54129960D01*
X61118740Y54129960D02*
X60737740Y54129960D01*
X58959740Y54129960D02*
X57308740Y54129960D01*
X54768740Y52224960D02*
X49688740Y52224960D01*
X49688740Y52224960D02*
X49688740Y51208960D01*
X49688740Y48160960D02*
X49688740Y47779960D01*
X49688740Y47779960D02*
X58578740Y47779960D01*
X61118740Y69369960D02*
G75*
G02X58578740Y66829960I-2540000J0D01*
G01*
X57232902Y73198920D02*
G75*
G02X54768740Y71274960I-2464162J616040D01*
G01*
X61118740Y69369960D02*
X61118740Y69750960D01*
X61118740Y72798960D02*
X61118740Y73179960D01*
X61118740Y73179960D02*
X60737740Y73179960D01*
X58959740Y73179960D02*
X57308740Y73179960D01*
X54768740Y71274960D02*
X49688740Y71274960D01*
X49688740Y71274960D02*
X49688740Y70258960D01*
X49688740Y67210960D02*
X49688740Y66829960D01*
X49688740Y66829960D02*
X58578740Y66829960D01*
X42068740Y12219960D02*
G75*
G02X39528740Y9679960I-2540000J0D01*
G01*
X38182902Y16048920D02*
G75*
G02X35718740Y14124960I-2464162J616040D01*
G01*
X42068740Y12219960D02*
X42068740Y12600960D01*
X42068740Y15648960D02*
X42068740Y16029960D01*
X42068740Y16029960D02*
X41687740Y16029960D01*
X39909740Y16029960D02*
X38258740Y16029960D01*
X35718740Y14124960D02*
X30638740Y14124960D01*
X30638740Y14124960D02*
X30638740Y13108960D01*
X30638740Y10060960D02*
X30638740Y9679960D01*
X30638740Y9679960D02*
X39528740Y9679960D01*
X42068740Y31269960D02*
G75*
G02X39528740Y28729960I-2540000J0D01*
G01*
X38182902Y35098920D02*
G75*
G02X35718740Y33174960I-2464162J616040D01*
G01*
X42068740Y31269960D02*
X42068740Y31650960D01*
X42068740Y34698960D02*
X42068740Y35079960D01*
X42068740Y35079960D02*
X41687740Y35079960D01*
X39909740Y35079960D02*
X38258740Y35079960D01*
X35718740Y33174960D02*
X30638740Y33174960D01*
X30638740Y33174960D02*
X30638740Y32158960D01*
X30638740Y29110960D02*
X30638740Y28729960D01*
X30638740Y28729960D02*
X39528740Y28729960D01*
X42068740Y50319960D02*
G75*
G02X39528740Y47779960I-2540000J0D01*
G01*
X38182902Y54148920D02*
G75*
G02X35718740Y52224960I-2464162J616040D01*
G01*
X42068740Y50319960D02*
X42068740Y50700960D01*
X42068740Y53748960D02*
X42068740Y54129960D01*
X42068740Y54129960D02*
X41687740Y54129960D01*
X39909740Y54129960D02*
X38258740Y54129960D01*
X35718740Y52224960D02*
X30638740Y52224960D01*
X30638740Y52224960D02*
X30638740Y51208960D01*
X30638740Y48160960D02*
X30638740Y47779960D01*
X30638740Y47779960D02*
X39528740Y47779960D01*
X42068740Y69369960D02*
G75*
G02X39528740Y66829960I-2540000J0D01*
G01*
X38182902Y73198920D02*
G75*
G02X35718740Y71274960I-2464162J616040D01*
G01*
X42068740Y69369960D02*
X42068740Y69750960D01*
X42068740Y72798960D02*
X42068740Y73179960D01*
X42068740Y73179960D02*
X41687740Y73179960D01*
X39909740Y73179960D02*
X38258740Y73179960D01*
X35718740Y71274960D02*
X30638740Y71274960D01*
X30638740Y71274960D02*
X30638740Y70258960D01*
X30638740Y67210960D02*
X30638740Y66829960D01*
X30638740Y66829960D02*
X39528740Y66829960D01*
X23018740Y12219960D02*
G75*
G02X20478740Y9679960I-2540000J0D01*
G01*
X19132902Y16048920D02*
G75*
G02X16668740Y14124960I-2464162J616040D01*
G01*
X23018740Y12219960D02*
X23018740Y12600960D01*
X23018740Y15648960D02*
X23018740Y16029960D01*
X23018740Y16029960D02*
X22637740Y16029960D01*
X20859740Y16029960D02*
X19208740Y16029960D01*
X16668740Y14124960D02*
X11588740Y14124960D01*
X11588740Y14124960D02*
X11588740Y13108960D01*
X11588740Y10060960D02*
X11588740Y9679960D01*
X11588740Y9679960D02*
X20478740Y9679960D01*
X23018740Y31269960D02*
G75*
G02X20478740Y28729960I-2540000J0D01*
G01*
X19132902Y35098920D02*
G75*
G02X16668740Y33174960I-2464162J616040D01*
G01*
X23018740Y31269960D02*
X23018740Y31650960D01*
X23018740Y34698960D02*
X23018740Y35079960D01*
X23018740Y35079960D02*
X22637740Y35079960D01*
X20859740Y35079960D02*
X19208740Y35079960D01*
X16668740Y33174960D02*
X11588740Y33174960D01*
X11588740Y33174960D02*
X11588740Y32158960D01*
X11588740Y29110960D02*
X11588740Y28729960D01*
X11588740Y28729960D02*
X20478740Y28729960D01*
X23018740Y50319960D02*
G75*
G02X20478740Y47779960I-2540000J0D01*
G01*
X19132902Y54148920D02*
G75*
G02X16668740Y52224960I-2464162J616040D01*
G01*
X23018740Y50319960D02*
X23018740Y50700960D01*
X23018740Y53748960D02*
X23018740Y54129960D01*
X23018740Y54129960D02*
X22637740Y54129960D01*
X20859740Y54129960D02*
X19208740Y54129960D01*
X16668740Y52224960D02*
X11588740Y52224960D01*
X11588740Y52224960D02*
X11588740Y51208960D01*
X11588740Y48160960D02*
X11588740Y47779960D01*
X11588740Y47779960D02*
X20478740Y47779960D01*
X23018740Y69369960D02*
G75*
G02X20478740Y66829960I-2540000J0D01*
G01*
X19132902Y73198920D02*
G75*
G02X16668740Y71274960I-2464162J616040D01*
G01*
X23018740Y69369960D02*
X23018740Y69750960D01*
X23018740Y72798960D02*
X23018740Y73179960D01*
X23018740Y73179960D02*
X22637740Y73179960D01*
X20859740Y73179960D02*
X19208740Y73179960D01*
X16668740Y71274960D02*
X11588740Y71274960D01*
X11588740Y71274960D02*
X11588740Y70258960D01*
X11588740Y67210960D02*
X11588740Y66829960D01*
X11588740Y66829960D02*
X20478740Y66829960D01*
D11*
X24270804Y115974960D02*
X23066676Y115974960D01*
X24270804Y114154960D02*
X23066676Y114154960D01*
X37468740Y109564960D02*
X37468740Y111564960D01*
X37468740Y111564960D02*
X41318740Y111564960D01*
X37468740Y109564960D02*
X41318740Y109564960D01*
X28668740Y118764960D02*
X30668740Y118764960D01*
X30668740Y118764960D02*
X30668740Y114914960D01*
X28668740Y118764960D02*
X28668740Y114914960D01*
X45053115Y64421210D02*
X43053115Y64421210D01*
X43053115Y64421210D02*
X43053115Y68321210D01*
X45053115Y64421210D02*
X45053115Y68321210D01*
X64103115Y45371210D02*
X62103115Y45371210D01*
X62103115Y45371210D02*
X62103115Y49271210D01*
X64103115Y45371210D02*
X64103115Y49271210D01*
X64104110Y7270540D02*
X62104110Y7270540D01*
X62104110Y7270540D02*
X62104110Y11170540D01*
X64104110Y7270540D02*
X64104110Y11170540D01*
X64103115Y26321210D02*
X62103115Y26321210D01*
X62103115Y26321210D02*
X62103115Y30221210D01*
X64103115Y26321210D02*
X64103115Y30221210D01*
X64104110Y83470860D02*
X62104110Y83470860D01*
X62104110Y83470860D02*
X62104110Y87370860D01*
X64104110Y83470860D02*
X64104110Y87370860D01*
X64103115Y64421210D02*
X62103115Y64421210D01*
X62103115Y64421210D02*
X62103115Y68321210D01*
X64103115Y64421210D02*
X64103115Y68321210D01*
X45053115Y7271210D02*
X43053115Y7271210D01*
X43053115Y7271210D02*
X43053115Y11171210D01*
X45053115Y7271210D02*
X45053115Y11171210D01*
X45053115Y26321210D02*
X43053115Y26321210D01*
X43053115Y26321210D02*
X43053115Y30221210D01*
X45053115Y26321210D02*
X45053115Y30221210D01*
X45053115Y45371210D02*
X43053115Y45371210D01*
X43053115Y45371210D02*
X43053115Y49271210D01*
X45053115Y45371210D02*
X45053115Y49271210D01*
X26003950Y83470860D02*
X24003950Y83470860D01*
X24003950Y83470860D02*
X24003950Y87370860D01*
X26003950Y83470860D02*
X26003950Y87370860D01*
X26003115Y7271210D02*
X24003115Y7271210D01*
X24003115Y7271210D02*
X24003115Y11171210D01*
X26003115Y7271210D02*
X26003115Y11171210D01*
X26003115Y26321210D02*
X24003115Y26321210D01*
X24003115Y26321210D02*
X24003115Y30221210D01*
X26003115Y26321210D02*
X26003115Y30221210D01*
X26003115Y45371210D02*
X24003115Y45371210D01*
X24003115Y45371210D02*
X24003115Y49271210D01*
X26003115Y45371210D02*
X26003115Y49271210D01*
X26003115Y64421210D02*
X24003115Y64421210D01*
X24003115Y64421210D02*
X24003115Y68321210D01*
X26003115Y64421210D02*
X26003115Y68321210D01*
X28978733Y93580000D02*
X29321267Y93580000D01*
X28978733Y94600000D02*
X29321267Y94600000D01*
X28978733Y95080000D02*
X29321267Y95080000D01*
X28978733Y96100000D02*
X29321267Y96100000D01*
X44158740Y116236227D02*
X44158740Y115893693D01*
X45178740Y116236227D02*
X45178740Y115893693D01*
X32658740Y116236227D02*
X32658740Y115893693D01*
X33678740Y116236227D02*
X33678740Y115893693D01*
D10*
X36752934Y87115410D02*
X36752934Y86305886D01*
X36705315Y86210648D01*
X36657696Y86163029D01*
X36562458Y86115410D01*
X36371982Y86115410D01*
X36276744Y86163029D01*
X36229125Y86210648D01*
X36181506Y86305886D01*
X36181506Y87115410D01*
X35229125Y87115410D02*
X35705315Y87115410D01*
X35752934Y86639219D01*
X35705315Y86686838D01*
X35610077Y86734457D01*
X35371982Y86734457D01*
X35276744Y86686838D01*
X35229125Y86639219D01*
X35181506Y86543981D01*
X35181506Y86305886D01*
X35229125Y86210648D01*
X35276744Y86163029D01*
X35371982Y86115410D01*
X35610077Y86115410D01*
X35705315Y86163029D01*
X35752934Y86210648D01*
X40808945Y20565090D02*
X41380374Y20565090D01*
X41094660Y20565090D02*
X41094660Y21565090D01*
X41189898Y21422232D01*
X41285136Y21326994D01*
X41380374Y21279375D01*
X30058865Y23765090D02*
X30630294Y23765090D01*
X30344580Y23765090D02*
X30344580Y24765090D01*
X30439818Y24622232D01*
X30535056Y24526994D01*
X30630294Y24479375D01*
X40808945Y58665250D02*
X41380374Y58665250D01*
X41094660Y58665250D02*
X41094660Y59665250D01*
X41189898Y59522392D01*
X41285136Y59427154D01*
X41380374Y59379535D01*
X30058865Y61865250D02*
X30630294Y61865250D01*
X30344580Y61865250D02*
X30344580Y62865250D01*
X30439818Y62722392D01*
X30535056Y62627154D01*
X30630294Y62579535D01*
X40430644Y116612580D02*
X40430644Y115803056D01*
X40383025Y115707818D01*
X40335406Y115660199D01*
X40240168Y115612580D01*
X40049692Y115612580D01*
X39954454Y115660199D01*
X39906835Y115707818D01*
X39859216Y115803056D01*
X39859216Y116612580D01*
X39478263Y116612580D02*
X38859216Y116612580D01*
X39192549Y116231627D01*
X39049692Y116231627D01*
X38954454Y116184008D01*
X38906835Y116136389D01*
X38859216Y116041151D01*
X38859216Y115803056D01*
X38906835Y115707818D01*
X38954454Y115660199D01*
X39049692Y115612580D01*
X39335406Y115612580D01*
X39430644Y115660199D01*
X39478263Y115707818D01*
X13680644Y121362580D02*
X13680644Y120553056D01*
X13633025Y120457818D01*
X13585406Y120410199D01*
X13490168Y120362580D01*
X13299692Y120362580D01*
X13204454Y120410199D01*
X13156835Y120457818D01*
X13109216Y120553056D01*
X13109216Y121362580D01*
X12109216Y120362580D02*
X12680644Y120362580D01*
X12394930Y120362580D02*
X12394930Y121362580D01*
X12490168Y121219722D01*
X12585406Y121124484D01*
X12680644Y121076865D01*
X26792857Y92137620D02*
X27126190Y92613810D01*
X27364285Y92137620D02*
X27364285Y93137620D01*
X26983333Y93137620D01*
X26888095Y93090000D01*
X26840476Y93042381D01*
X26792857Y92947143D01*
X26792857Y92804286D01*
X26840476Y92709048D01*
X26888095Y92661429D01*
X26983333Y92613810D01*
X27364285Y92613810D01*
X26411904Y93042381D02*
X26364285Y93090000D01*
X26269047Y93137620D01*
X26030952Y93137620D01*
X25935714Y93090000D01*
X25888095Y93042381D01*
X25840476Y92947143D01*
X25840476Y92851905D01*
X25888095Y92709048D01*
X26459523Y92137620D01*
X25840476Y92137620D01*
X25221428Y93137620D02*
X25126190Y93137620D01*
X25030952Y93090000D01*
X24983333Y93042381D01*
X24935714Y92947143D01*
X24888095Y92756667D01*
X24888095Y92518572D01*
X24935714Y92328096D01*
X24983333Y92232858D01*
X25030952Y92185239D01*
X25126190Y92137620D01*
X25221428Y92137620D01*
X25316666Y92185239D01*
X25364285Y92232858D01*
X25411904Y92328096D01*
X25459523Y92518572D01*
X25459523Y92756667D01*
X25411904Y92947143D01*
X25364285Y93042381D01*
X25316666Y93090000D01*
X25221428Y93137620D01*
X26792857Y90137620D02*
X27126190Y90613810D01*
X27364285Y90137620D02*
X27364285Y91137620D01*
X26983333Y91137620D01*
X26888095Y91090000D01*
X26840476Y91042381D01*
X26792857Y90947143D01*
X26792857Y90804286D01*
X26840476Y90709048D01*
X26888095Y90661429D01*
X26983333Y90613810D01*
X27364285Y90613810D01*
X25840476Y90137620D02*
X26411904Y90137620D01*
X26126190Y90137620D02*
X26126190Y91137620D01*
X26221428Y90994762D01*
X26316666Y90899524D01*
X26411904Y90851905D01*
X25364285Y90137620D02*
X25173809Y90137620D01*
X25078571Y90185239D01*
X25030952Y90232858D01*
X24935714Y90375715D01*
X24888095Y90566191D01*
X24888095Y90947143D01*
X24935714Y91042381D01*
X24983333Y91090000D01*
X25078571Y91137620D01*
X25269047Y91137620D01*
X25364285Y91090000D01*
X25411904Y91042381D01*
X25459523Y90947143D01*
X25459523Y90709048D01*
X25411904Y90613810D01*
X25364285Y90566191D01*
X25269047Y90518572D01*
X25078571Y90518572D01*
X24983333Y90566191D01*
X24935714Y90613810D01*
X24888095Y90709048D01*
X26792857Y88737620D02*
X27126190Y89213810D01*
X27364285Y88737620D02*
X27364285Y89737620D01*
X26983333Y89737620D01*
X26888095Y89690000D01*
X26840476Y89642381D01*
X26792857Y89547143D01*
X26792857Y89404286D01*
X26840476Y89309048D01*
X26888095Y89261429D01*
X26983333Y89213810D01*
X27364285Y89213810D01*
X25840476Y88737620D02*
X26411904Y88737620D01*
X26126190Y88737620D02*
X26126190Y89737620D01*
X26221428Y89594762D01*
X26316666Y89499524D01*
X26411904Y89451905D01*
X25269047Y89309048D02*
X25364285Y89356667D01*
X25411904Y89404286D01*
X25459523Y89499524D01*
X25459523Y89547143D01*
X25411904Y89642381D01*
X25364285Y89690000D01*
X25269047Y89737620D01*
X25078571Y89737620D01*
X24983333Y89690000D01*
X24935714Y89642381D01*
X24888095Y89547143D01*
X24888095Y89499524D01*
X24935714Y89404286D01*
X24983333Y89356667D01*
X25078571Y89309048D01*
X25269047Y89309048D01*
X25364285Y89261429D01*
X25411904Y89213810D01*
X25459523Y89118572D01*
X25459523Y88928096D01*
X25411904Y88832858D01*
X25364285Y88785239D01*
X25269047Y88737620D01*
X25078571Y88737620D01*
X24983333Y88785239D01*
X24935714Y88832858D01*
X24888095Y88928096D01*
X24888095Y89118572D01*
X24935714Y89213810D01*
X24983333Y89261429D01*
X25078571Y89309048D01*
X47811597Y117862580D02*
X48144930Y118338770D01*
X48383025Y117862580D02*
X48383025Y118862580D01*
X48002073Y118862580D01*
X47906835Y118814960D01*
X47859216Y118767341D01*
X47811597Y118672103D01*
X47811597Y118529246D01*
X47859216Y118434008D01*
X47906835Y118386389D01*
X48002073Y118338770D01*
X48383025Y118338770D01*
X46859216Y117862580D02*
X47430644Y117862580D01*
X47144930Y117862580D02*
X47144930Y118862580D01*
X47240168Y118719722D01*
X47335406Y118624484D01*
X47430644Y118576865D01*
X45954454Y118862580D02*
X46430644Y118862580D01*
X46478263Y118386389D01*
X46430644Y118434008D01*
X46335406Y118481627D01*
X46097311Y118481627D01*
X46002073Y118434008D01*
X45954454Y118386389D01*
X45906835Y118291151D01*
X45906835Y118053056D01*
X45954454Y117957818D01*
X46002073Y117910199D01*
X46097311Y117862580D01*
X46335406Y117862580D01*
X46430644Y117910199D01*
X46478263Y117957818D01*
X36061597Y117862580D02*
X36394930Y118338770D01*
X36633025Y117862580D02*
X36633025Y118862580D01*
X36252073Y118862580D01*
X36156835Y118814960D01*
X36109216Y118767341D01*
X36061597Y118672103D01*
X36061597Y118529246D01*
X36109216Y118434008D01*
X36156835Y118386389D01*
X36252073Y118338770D01*
X36633025Y118338770D01*
X35109216Y117862580D02*
X35680644Y117862580D01*
X35394930Y117862580D02*
X35394930Y118862580D01*
X35490168Y118719722D01*
X35585406Y118624484D01*
X35680644Y118576865D01*
X34728263Y118767341D02*
X34680644Y118814960D01*
X34585406Y118862580D01*
X34347311Y118862580D01*
X34252073Y118814960D01*
X34204454Y118767341D01*
X34156835Y118672103D01*
X34156835Y118576865D01*
X34204454Y118434008D01*
X34775882Y117862580D01*
X34156835Y117862580D01*
X59793025Y7957580D02*
X59793025Y8957580D01*
X59221597Y7957580D02*
X59650168Y8529008D01*
X59221597Y8957580D02*
X59793025Y8386151D01*
X58269216Y7957580D02*
X58840644Y7957580D01*
X58554930Y7957580D02*
X58554930Y8957580D01*
X58650168Y8814722D01*
X58745406Y8719484D01*
X58840644Y8671865D01*
X57888263Y8862341D02*
X57840644Y8909960D01*
X57745406Y8957580D01*
X57507311Y8957580D01*
X57412073Y8909960D01*
X57364454Y8862341D01*
X57316835Y8767103D01*
X57316835Y8671865D01*
X57364454Y8529008D01*
X57935882Y7957580D01*
X57316835Y7957580D01*
X59793025Y27007580D02*
X59793025Y28007580D01*
X59221597Y27007580D02*
X59650168Y27579008D01*
X59221597Y28007580D02*
X59793025Y27436151D01*
X58269216Y27007580D02*
X58840644Y27007580D01*
X58554930Y27007580D02*
X58554930Y28007580D01*
X58650168Y27864722D01*
X58745406Y27769484D01*
X58840644Y27721865D01*
X57316835Y27007580D02*
X57888263Y27007580D01*
X57602549Y27007580D02*
X57602549Y28007580D01*
X57697787Y27864722D01*
X57793025Y27769484D01*
X57888263Y27721865D01*
X59793025Y46057580D02*
X59793025Y47057580D01*
X59221597Y46057580D02*
X59650168Y46629008D01*
X59221597Y47057580D02*
X59793025Y46486151D01*
X58269216Y46057580D02*
X58840644Y46057580D01*
X58554930Y46057580D02*
X58554930Y47057580D01*
X58650168Y46914722D01*
X58745406Y46819484D01*
X58840644Y46771865D01*
X57650168Y47057580D02*
X57554930Y47057580D01*
X57459692Y47009960D01*
X57412073Y46962341D01*
X57364454Y46867103D01*
X57316835Y46676627D01*
X57316835Y46438532D01*
X57364454Y46248056D01*
X57412073Y46152818D01*
X57459692Y46105199D01*
X57554930Y46057580D01*
X57650168Y46057580D01*
X57745406Y46105199D01*
X57793025Y46152818D01*
X57840644Y46248056D01*
X57888263Y46438532D01*
X57888263Y46676627D01*
X57840644Y46867103D01*
X57793025Y46962341D01*
X57745406Y47009960D01*
X57650168Y47057580D01*
X59316835Y65107580D02*
X59316835Y66107580D01*
X58745406Y65107580D02*
X59173978Y65679008D01*
X58745406Y66107580D02*
X59316835Y65536151D01*
X58269216Y65107580D02*
X58078740Y65107580D01*
X57983501Y65155199D01*
X57935882Y65202818D01*
X57840644Y65345675D01*
X57793025Y65536151D01*
X57793025Y65917103D01*
X57840644Y66012341D01*
X57888263Y66059960D01*
X57983501Y66107580D01*
X58173978Y66107580D01*
X58269216Y66059960D01*
X58316835Y66012341D01*
X58364454Y65917103D01*
X58364454Y65679008D01*
X58316835Y65583770D01*
X58269216Y65536151D01*
X58173978Y65488532D01*
X57983501Y65488532D01*
X57888263Y65536151D01*
X57840644Y65583770D01*
X57793025Y65679008D01*
X40266835Y7957580D02*
X40266835Y8957580D01*
X39695406Y7957580D02*
X40123978Y8529008D01*
X39695406Y8957580D02*
X40266835Y8386151D01*
X39123978Y8529008D02*
X39219216Y8576627D01*
X39266835Y8624246D01*
X39314454Y8719484D01*
X39314454Y8767103D01*
X39266835Y8862341D01*
X39219216Y8909960D01*
X39123978Y8957580D01*
X38933501Y8957580D01*
X38838263Y8909960D01*
X38790644Y8862341D01*
X38743025Y8767103D01*
X38743025Y8719484D01*
X38790644Y8624246D01*
X38838263Y8576627D01*
X38933501Y8529008D01*
X39123978Y8529008D01*
X39219216Y8481389D01*
X39266835Y8433770D01*
X39314454Y8338532D01*
X39314454Y8148056D01*
X39266835Y8052818D01*
X39219216Y8005199D01*
X39123978Y7957580D01*
X38933501Y7957580D01*
X38838263Y8005199D01*
X38790644Y8052818D01*
X38743025Y8148056D01*
X38743025Y8338532D01*
X38790644Y8433770D01*
X38838263Y8481389D01*
X38933501Y8529008D01*
X40266835Y27007580D02*
X40266835Y28007580D01*
X39695406Y27007580D02*
X40123978Y27579008D01*
X39695406Y28007580D02*
X40266835Y27436151D01*
X39362073Y28007580D02*
X38695406Y28007580D01*
X39123978Y27007580D01*
X40266835Y46057580D02*
X40266835Y47057580D01*
X39695406Y46057580D02*
X40123978Y46629008D01*
X39695406Y47057580D02*
X40266835Y46486151D01*
X38838263Y47057580D02*
X39028740Y47057580D01*
X39123978Y47009960D01*
X39171597Y46962341D01*
X39266835Y46819484D01*
X39314454Y46629008D01*
X39314454Y46248056D01*
X39266835Y46152818D01*
X39219216Y46105199D01*
X39123978Y46057580D01*
X38933501Y46057580D01*
X38838263Y46105199D01*
X38790644Y46152818D01*
X38743025Y46248056D01*
X38743025Y46486151D01*
X38790644Y46581389D01*
X38838263Y46629008D01*
X38933501Y46676627D01*
X39123978Y46676627D01*
X39219216Y46629008D01*
X39266835Y46581389D01*
X39314454Y46486151D01*
X40266835Y65107580D02*
X40266835Y66107580D01*
X39695406Y65107580D02*
X40123978Y65679008D01*
X39695406Y66107580D02*
X40266835Y65536151D01*
X38790644Y66107580D02*
X39266835Y66107580D01*
X39314454Y65631389D01*
X39266835Y65679008D01*
X39171597Y65726627D01*
X38933501Y65726627D01*
X38838263Y65679008D01*
X38790644Y65631389D01*
X38743025Y65536151D01*
X38743025Y65298056D01*
X38790644Y65202818D01*
X38838263Y65155199D01*
X38933501Y65107580D01*
X39171597Y65107580D01*
X39266835Y65155199D01*
X39314454Y65202818D01*
X21216835Y7957580D02*
X21216835Y8957580D01*
X20645406Y7957580D02*
X21073978Y8529008D01*
X20645406Y8957580D02*
X21216835Y8386151D01*
X19788263Y8624246D02*
X19788263Y7957580D01*
X20026359Y9005199D02*
X20264454Y8290913D01*
X19645406Y8290913D01*
X21216835Y27007580D02*
X21216835Y28007580D01*
X20645406Y27007580D02*
X21073978Y27579008D01*
X20645406Y28007580D02*
X21216835Y27436151D01*
X20312073Y28007580D02*
X19693025Y28007580D01*
X20026359Y27626627D01*
X19883501Y27626627D01*
X19788263Y27579008D01*
X19740644Y27531389D01*
X19693025Y27436151D01*
X19693025Y27198056D01*
X19740644Y27102818D01*
X19788263Y27055199D01*
X19883501Y27007580D01*
X20169216Y27007580D01*
X20264454Y27055199D01*
X20312073Y27102818D01*
X21216835Y46057580D02*
X21216835Y47057580D01*
X20645406Y46057580D02*
X21073978Y46629008D01*
X20645406Y47057580D02*
X21216835Y46486151D01*
X20264454Y46962341D02*
X20216835Y47009960D01*
X20121597Y47057580D01*
X19883501Y47057580D01*
X19788263Y47009960D01*
X19740644Y46962341D01*
X19693025Y46867103D01*
X19693025Y46771865D01*
X19740644Y46629008D01*
X20312073Y46057580D01*
X19693025Y46057580D01*
X21216835Y65107580D02*
X21216835Y66107580D01*
X20645406Y65107580D02*
X21073978Y65679008D01*
X20645406Y66107580D02*
X21216835Y65536151D01*
X19693025Y65107580D02*
X20264454Y65107580D01*
X19978740Y65107580D02*
X19978740Y66107580D01*
X20073978Y65964722D01*
X20169216Y65869484D01*
X20264454Y65821865D01*
X24002073Y116956389D02*
X24335406Y116956389D01*
X24335406Y116432580D02*
X24335406Y117432580D01*
X23859216Y117432580D01*
X22954454Y116432580D02*
X23525882Y116432580D01*
X23240168Y116432580D02*
X23240168Y117432580D01*
X23335406Y117289722D01*
X23430644Y117194484D01*
X23525882Y117146865D01*
X40279835Y108207580D02*
X40279835Y109207580D01*
X40041740Y109207580D01*
X39898882Y109159960D01*
X39803644Y109064722D01*
X39756025Y108969484D01*
X39708406Y108779008D01*
X39708406Y108636151D01*
X39756025Y108445675D01*
X39803644Y108350437D01*
X39898882Y108255199D01*
X40041740Y108207580D01*
X40279835Y108207580D01*
X39375073Y109207580D02*
X38756025Y109207580D01*
X39089359Y108826627D01*
X38946501Y108826627D01*
X38851263Y108779008D01*
X38803644Y108731389D01*
X38756025Y108636151D01*
X38756025Y108398056D01*
X38803644Y108302818D01*
X38851263Y108255199D01*
X38946501Y108207580D01*
X39232216Y108207580D01*
X39327454Y108255199D01*
X39375073Y108302818D01*
X28501835Y116239580D02*
X28501835Y117239580D01*
X28263740Y117239580D01*
X28120882Y117191960D01*
X28025644Y117096722D01*
X27978025Y117001484D01*
X27930406Y116811008D01*
X27930406Y116668151D01*
X27978025Y116477675D01*
X28025644Y116382437D01*
X28120882Y116287199D01*
X28263740Y116239580D01*
X28501835Y116239580D01*
X26978025Y116239580D02*
X27549454Y116239580D01*
X27263740Y116239580D02*
X27263740Y117239580D01*
X27358978Y117096722D01*
X27454216Y117001484D01*
X27549454Y116953865D01*
X26792857Y93732858D02*
X26840476Y93685239D01*
X26983333Y93637620D01*
X27078571Y93637620D01*
X27221428Y93685239D01*
X27316666Y93780477D01*
X27364285Y93875715D01*
X27411904Y94066191D01*
X27411904Y94209048D01*
X27364285Y94399524D01*
X27316666Y94494762D01*
X27221428Y94590000D01*
X27078571Y94637620D01*
X26983333Y94637620D01*
X26840476Y94590000D01*
X26792857Y94542381D01*
X26411904Y94542381D02*
X26364285Y94590000D01*
X26269047Y94637620D01*
X26030952Y94637620D01*
X25935714Y94590000D01*
X25888095Y94542381D01*
X25840476Y94447143D01*
X25840476Y94351905D01*
X25888095Y94209048D01*
X26459523Y93637620D01*
X25840476Y93637620D01*
X25364285Y93637620D02*
X25173809Y93637620D01*
X25078571Y93685239D01*
X25030952Y93732858D01*
X24935714Y93875715D01*
X24888095Y94066191D01*
X24888095Y94447143D01*
X24935714Y94542381D01*
X24983333Y94590000D01*
X25078571Y94637620D01*
X25269047Y94637620D01*
X25364285Y94590000D01*
X25411904Y94542381D01*
X25459523Y94447143D01*
X25459523Y94209048D01*
X25411904Y94113810D01*
X25364285Y94066191D01*
X25269047Y94018572D01*
X25078571Y94018572D01*
X24983333Y94066191D01*
X24935714Y94113810D01*
X24888095Y94209048D01*
X26792857Y95232858D02*
X26840476Y95185239D01*
X26983333Y95137620D01*
X27078571Y95137620D01*
X27221428Y95185239D01*
X27316666Y95280477D01*
X27364285Y95375715D01*
X27411904Y95566191D01*
X27411904Y95709048D01*
X27364285Y95899524D01*
X27316666Y95994762D01*
X27221428Y96090000D01*
X27078571Y96137620D01*
X26983333Y96137620D01*
X26840476Y96090000D01*
X26792857Y96042381D01*
X26411904Y96042381D02*
X26364285Y96090000D01*
X26269047Y96137620D01*
X26030952Y96137620D01*
X25935714Y96090000D01*
X25888095Y96042381D01*
X25840476Y95947143D01*
X25840476Y95851905D01*
X25888095Y95709048D01*
X26459523Y95137620D01*
X25840476Y95137620D01*
X25269047Y95709048D02*
X25364285Y95756667D01*
X25411904Y95804286D01*
X25459523Y95899524D01*
X25459523Y95947143D01*
X25411904Y96042381D01*
X25364285Y96090000D01*
X25269047Y96137620D01*
X25078571Y96137620D01*
X24983333Y96090000D01*
X24935714Y96042381D01*
X24888095Y95947143D01*
X24888095Y95899524D01*
X24935714Y95804286D01*
X24983333Y95756667D01*
X25078571Y95709048D01*
X25269047Y95709048D01*
X25364285Y95661429D01*
X25411904Y95613810D01*
X25459523Y95518572D01*
X25459523Y95328096D01*
X25411904Y95232858D01*
X25364285Y95185239D01*
X25269047Y95137620D01*
X25078571Y95137620D01*
X24983333Y95185239D01*
X24935714Y95232858D01*
X24888095Y95328096D01*
X24888095Y95518572D01*
X24935714Y95613810D01*
X24983333Y95661429D01*
X25078571Y95709048D01*
X44561597Y117957818D02*
X44609216Y117910199D01*
X44752073Y117862580D01*
X44847311Y117862580D01*
X44990168Y117910199D01*
X45085406Y118005437D01*
X45133025Y118100675D01*
X45180644Y118291151D01*
X45180644Y118434008D01*
X45133025Y118624484D01*
X45085406Y118719722D01*
X44990168Y118814960D01*
X44847311Y118862580D01*
X44752073Y118862580D01*
X44609216Y118814960D01*
X44561597Y118767341D01*
X43609216Y117862580D02*
X44180644Y117862580D01*
X43894930Y117862580D02*
X43894930Y118862580D01*
X43990168Y118719722D01*
X44085406Y118624484D01*
X44180644Y118576865D01*
X43133025Y117862580D02*
X42942549Y117862580D01*
X42847311Y117910199D01*
X42799692Y117957818D01*
X42704454Y118100675D01*
X42656835Y118291151D01*
X42656835Y118672103D01*
X42704454Y118767341D01*
X42752073Y118814960D01*
X42847311Y118862580D01*
X43037787Y118862580D01*
X43133025Y118814960D01*
X43180644Y118767341D01*
X43228263Y118672103D01*
X43228263Y118434008D01*
X43180644Y118338770D01*
X43133025Y118291151D01*
X43037787Y118243532D01*
X42847311Y118243532D01*
X42752073Y118291151D01*
X42704454Y118338770D01*
X42656835Y118434008D01*
X33061597Y117957818D02*
X33109216Y117910199D01*
X33252073Y117862580D01*
X33347311Y117862580D01*
X33490168Y117910199D01*
X33585406Y118005437D01*
X33633025Y118100675D01*
X33680644Y118291151D01*
X33680644Y118434008D01*
X33633025Y118624484D01*
X33585406Y118719722D01*
X33490168Y118814960D01*
X33347311Y118862580D01*
X33252073Y118862580D01*
X33109216Y118814960D01*
X33061597Y118767341D01*
X32109216Y117862580D02*
X32680644Y117862580D01*
X32394930Y117862580D02*
X32394930Y118862580D01*
X32490168Y118719722D01*
X32585406Y118624484D01*
X32680644Y118576865D01*
X31204454Y118862580D02*
X31680644Y118862580D01*
X31728263Y118386389D01*
X31680644Y118434008D01*
X31585406Y118481627D01*
X31347311Y118481627D01*
X31252073Y118434008D01*
X31204454Y118386389D01*
X31156835Y118291151D01*
X31156835Y118053056D01*
X31204454Y117957818D01*
X31252073Y117910199D01*
X31347311Y117862580D01*
X31585406Y117862580D01*
X31680644Y117910199D01*
X31728263Y117957818D01*
M02*
