M48
; DRILL file {KiCad (5.1.5)-3} date 11/15/2020 12:52:41 PM
; FORMAT={-:-/ absolute / inch / decimal}
; #@! TF.CreationDate,2020-11-15T12:52:41-05:00
; #@! TF.GenerationSoftware,Kicad,Pcbnew,(5.1.5)-3
; #@! TF.FileFunction,NonPlated,1,2,NPTH
FMAT,2
INCH
T1C0.0256
T2C0.0600
T3C0.0670
T4C0.1181
T5C0.1260
T6C0.1570
%
G90
G05
T1
X0.73Y5.1944
X0.9576Y5.1944
T2
X0.6562Y1.7342
X2.1562Y3.2342
X0.6562Y2.4842
X2.1562Y2.4842
X1.4062Y1.7342
X2.1562Y1.7342
X0.6562Y3.2342
X0.6562Y0.9842
X2.1562Y0.9842
X1.4062Y3.2342
X1.4062Y2.4842
X1.4062Y0.9842
T3
X1.2062Y2.9061
X1.6062Y2.9061
X1.9562Y1.4061
X2.3562Y1.4061
X0.4562Y0.6561
X0.8562Y0.6561
X0.4562Y2.1561
X0.8562Y2.1561
X1.2062Y2.1561
X1.6062Y2.1561
X0.4562Y2.9061
X0.8562Y2.9061
X1.2062Y0.6561
X1.6062Y0.6561
X0.4562Y1.4061
X0.8562Y1.4061
X1.9562Y0.6561
X2.3562Y0.6561
X1.2062Y1.4061
X1.6062Y1.4061
X1.9562Y2.1561
X2.3562Y2.1561
X1.9562Y2.9061
X2.3562Y2.9061
T4
X0.5562Y0.4561
X0.8062Y0.5561
X0.5562Y1.9561
X0.8062Y2.0561
X1.3062Y1.9561
X1.5562Y2.0561
X0.5562Y2.7061
X0.8062Y2.8061
X1.3062Y0.4561
X1.5562Y0.5561
X0.5562Y1.2061
X0.8062Y1.3061
X2.0562Y0.4561
X2.3062Y0.5561
X1.3062Y1.2061
X1.5562Y1.3061
X2.0562Y1.9561
X2.3062Y2.0561
X2.0562Y2.7061
X2.3062Y2.8061
X1.3062Y2.7061
X1.5562Y2.8061
X2.0562Y1.2061
X2.3062Y1.3061
T5
X0.1407Y5.2967
X2.6719Y5.2967
X0.1407Y0.1404
T6
X0.6562Y2.1561
X0.6562Y2.9061
X1.4062Y0.6561
X0.6562Y1.4061
X1.4062Y1.4061
X2.1562Y2.1561
X2.1562Y2.9061
X1.4062Y2.9061
X2.1562Y1.4061
X0.6562Y0.6561
X1.4062Y2.1561
X2.1562Y0.6561
T0
M30
