M48
; DRILL file {KiCad (5.1.5)-3} date 11/15/2020 12:52:41 PM
; FORMAT={-:-/ absolute / inch / decimal}
; #@! TF.CreationDate,2020-11-15T12:52:41-05:00
; #@! TF.GenerationSoftware,Kicad,Pcbnew,(5.1.5)-3
; #@! TF.FileFunction,Plated,1,2,PTH
FMAT,2
INCH
T1C0.0157
T2C0.0236
T3C0.0300
T4C0.0394
T5C0.0590
T6C0.0591
T7C0.1260
%
G90
G05
T1
X0.1496Y5.1512
X0.1496Y5.1118
X0.1496Y5.0724
X0.1496Y5.0331
X0.1496Y4.9937
X0.1594Y4.2654
X0.1988Y1.0075
X0.2185Y2.5134
X0.2579Y4.6059
X0.2579Y0.8598
X0.2776Y2.474
X0.2972Y4.5705
X0.2972Y1.726
X0.3169Y3.1728
X0.3209Y4.6059
X0.3366Y5.3579
X0.375Y1.5202
X0.4055Y4.2063
X0.4086Y3.0335
X0.4252Y5.2201
X0.4843Y5.1807
X0.5138Y4.9543
X0.5236Y5.1807
X0.5236Y3.8126
X0.5433Y1.0075
X0.563Y5.1807
X0.563Y1.6669
X0.5728Y3.2713
X0.5728Y1.7555
X0.6024Y5.1807
X0.6319Y5.0429
X0.7158Y5.0678
X0.7205Y1.0272
X0.7402Y1.7752
X0.75Y0.9681
X0.7598Y1.7063
X0.7641Y3.2559
X0.8287Y4.1768
X0.8287Y3.0449
X0.8587Y2.5258
X0.8681Y3.3992
X0.9075Y3.6945
X0.937Y2.2181
X0.9375Y4.7811
X0.9614Y3.3687
X0.9665Y0.722
X0.9717Y5.0678
X0.9764Y4.9543
X0.9764Y3.035
X0.9764Y2.285
X0.9764Y0.785
X0.9791Y1.535
X0.9951Y3.9101
X1.0295Y4.4484
X1.0303Y5.0026
X1.0313Y3.1925
X1.0313Y3.0936
X1.0313Y2.4373
X1.0313Y2.3436
X1.0313Y0.9373
X1.0313Y0.8436
X1.034Y1.6873
X1.034Y1.5936
X1.0453Y4.8748
X1.065Y3.665
X1.065Y2.2575
X1.0748Y3.0449
X1.0748Y2.4937
X1.0925Y4.5665
X1.1043Y0.6335
X1.125Y2.2585
X1.125Y1.5105
X1.1319Y4.8579
X1.1339Y4.5902
X1.1339Y4.4917
X1.1372Y3.012
X1.1586Y0.7835
X1.1719Y5.203
X1.1732Y3.2122
X1.1831Y2.4248
X1.1831Y1.726
X1.1831Y0.9189
X1.187Y4.7083
X1.2126Y4.4917
X1.2126Y3.4091
X1.2126Y3.2122
X1.2579Y4.7398
X1.2618Y4.5803
X1.2618Y3.8717
X1.2618Y3.1827
X1.2745Y3.2783
X1.2815Y1.6768
X1.2913Y4.1472
X1.3051Y3.2594
X1.3083Y2.5091
X1.311Y2.9563
X1.3287Y3.228
X1.3319Y2.4776
X1.3445Y5.1335
X1.3445Y3.5429
X1.3504Y2.3854
X1.3701Y1.6374
X1.3799Y3.1433
X1.3839Y5.2752
X1.3839Y5.2358
X1.3839Y5.1965
X1.3839Y5.1571
X1.3898Y3.3697
X1.3898Y3.0547
X1.3996Y3.4583
X1.4075Y4.1965
X1.4094Y1.539
X1.4193Y3.7732
X1.4193Y3.4189
X1.439Y3.1433
X1.4783Y3.3992
X1.4882Y3.2122
X1.5098Y5.2516
X1.5125Y4.8057
X1.5177Y3.2614
X1.5276Y3.35
X1.5335Y5.1728
X1.5374Y3.8618
X1.5472Y3.2122
X1.5571Y5.2516
X1.5571Y4.0783
X1.5669Y3.4484
X1.5728Y5.1728
X1.5866Y2.4642
X1.6063Y4.5705
X1.6161Y4.1374
X1.6161Y4.0193
X1.6752Y3.4287
X1.7047Y4.6492
X1.7146Y0.722
X1.7343Y4.0882
X1.7343Y4.0193
X1.7441Y2.5134
X1.7736Y3.3992
X1.7813Y3.1873
X1.7813Y3.0936
X1.7813Y2.4373
X1.7813Y2.3436
X1.7813Y1.6873
X1.7813Y1.5936
X1.7813Y0.9373
X1.7813Y0.8436
X1.7835Y3.3402
X1.8228Y3.1591
X1.8228Y2.4091
X1.8228Y1.6591
X1.8228Y0.9091
X1.8327Y0.7024
X1.875Y2.9998
X1.875Y2.2506
X1.875Y1.5026
X1.875Y0.7546
X1.8917Y3.1335
X1.9016Y1.8441
X1.9114Y0.8894
X1.9311Y3.163
X1.9311Y3.1039
X1.9311Y1.6374
X1.9508Y0.9681
X1.9902Y2.4839
X2.0Y4.4228
X2.0295Y0.9386
X2.0394Y2.1098
X2.0453Y4.9445
X2.0563Y3.2571
X2.0563Y1.761
X2.0563Y1.013
X2.08Y3.2256
X2.08Y1.7296
X2.08Y0.9815
X2.1083Y0.8894
X2.1181Y2.3953
X2.124Y4.9445
X2.128Y3.1236
X2.1476Y3.0547
X2.1575Y3.1531
X2.2362Y1.0075
X2.2461Y1.7752
X2.2559Y2.4642
X2.2953Y1.913
X2.2953Y1.7555
X2.3051Y3.222
X2.3445Y2.5035
X2.374Y3.1531
X2.3937Y1.726
X2.4331Y2.4248
X2.4626Y3.2024
X2.6398Y3.1531
X2.6988Y3.2024
X2.7185Y4.3933
T3
X0.7173Y4.4155
X0.7173Y4.3155
X0.7173Y4.2155
X0.7173Y4.1155
T4
X2.5854Y5.0813
X2.5854Y4.9813
X2.5854Y4.8813
X2.5854Y4.7813
X2.5854Y4.6813
X2.6854Y5.0813
X2.6854Y4.9813
X2.6854Y4.8813
X2.6854Y4.7813
X2.6854Y4.6813
X1.861Y3.7545
X1.861Y3.6561
X1.861Y3.5577
X2.4319Y3.7545
X2.4319Y3.5577
X0.361Y3.7545
X0.361Y3.6561
X0.361Y3.5577
X0.9319Y3.7545
X0.9319Y3.5577
T5
X1.2562Y3.0061
X1.5062Y3.1061
X2.0062Y1.5061
X2.2562Y1.6061
X0.5062Y0.7561
X0.7562Y0.8561
X0.5062Y2.2561
X0.7562Y2.3561
X1.2562Y2.2561
X1.5062Y2.3561
X0.5062Y3.0061
X0.7562Y3.1061
X1.2562Y0.7561
X1.5062Y0.8561
X0.5062Y1.5061
X0.7562Y1.6061
X2.0062Y0.7561
X2.2562Y0.8561
X1.2562Y1.5061
X1.5062Y1.6061
X2.0062Y2.2561
X2.2562Y2.3561
X2.0062Y3.0061
X2.2562Y3.1061
T7
X2.6719Y0.1404
T2
G00X0.6737Y5.3262
M15
G01X0.6737Y5.3499
M16
G05
G00X0.6737Y5.1518
M15
G01X0.6737Y5.1951
M16
G05
G00X1.0139Y5.3262
M15
G01X1.0139Y5.3499
M16
G05
G00X1.0139Y5.1518
M15
G01X1.0139Y5.1951
M16
G05
T6
G00X2.1307Y3.8766
M15
G01X2.1819Y3.8766
M16
G05
G00X2.1307Y3.4356
M15
G01X2.1819Y3.4356
M16
G05
G00X0.6307Y3.8766
M15
G01X0.6819Y3.8766
M16
G05
G00X0.6307Y3.4356
M15
G01X0.6819Y3.4356
M16
G05
T0
M30
